STARTFONT 2.3
FONT -FontForge-Monoton-Book-R-Normal--28-280-72-72-P-189-ISO10646-1
SIZE 28 72 72  2
FONTBOUNDINGBOX 52 43 -4 -11
COMMENT "Generated by fontforge, http://fontforge.sourceforge.net"
COMMENT "Copyright (c) 2011 by vernon adams. All rights reserved."
STARTPROPERTIES 41
FOUNDRY "FontForge"
FAMILY_NAME "Monoton"
WEIGHT_NAME "Book"
SLANT "R"
SETWIDTH_NAME "Normal"
ADD_STYLE_NAME ""
PIXEL_SIZE 28
POINT_SIZE 280
RESOLUTION_X 72
RESOLUTION_Y 72
SPACING "P"
AVERAGE_WIDTH 189
CHARSET_REGISTRY "ISO10646"
CHARSET_ENCODING "1"
FONTNAME_REGISTRY ""
CHARSET_COLLECTIONS "ISO8859-2 ISO8859-9 ISO8859-4 ISO10646-1"
BITS_PER_PIXEL 2
FONT_NAME "Monoton-Regular"
FACE_NAME "Monoton"
COPYRIGHT "Copyright (c) 2011 by vernon adams. All rights reserved."
FONT_VERSION "1.000"
FONT_ASCENT 22
FONT_DESCENT 6
UNDERLINE_POSITION -1
UNDERLINE_THICKNESS 1
X_HEIGHT 19
CAP_HEIGHT 22
DEFAULT_CHAR 1
RAW_ASCENT 799
RAW_DESCENT 200
NORM_SPACE 3
RELATIVE_WEIGHT 40
RELATIVE_SETWIDTH 50
SUPERSCRIPT_X 0
SUPERSCRIPT_Y 9
SUPERSCRIPT_SIZE 16
SUBSCRIPT_X 0
SUBSCRIPT_Y 2
SUBSCRIPT_SIZE 16
AVG_LOWERCASE_WIDTH 202
AVG_UPPERCASE_WIDTH 221
ENDPROPERTIES
CHARS 372
STARTCHAR glyph1.dup1
ENCODING 0
SWIDTH 108 0
DWIDTH 3 0
BBX 1 1 0 0
BITMAP
00
ENDCHAR
STARTCHAR uni0002
ENCODING 2
SWIDTH 108 0
DWIDTH 3 0
BBX 1 1 0 0
BITMAP
00
ENDCHAR
STARTCHAR uni0009
ENCODING 9
SWIDTH 108 0
DWIDTH 3 0
BBX 1 1 0 0
BITMAP
00
ENDCHAR
STARTCHAR uni000A
ENCODING 10
SWIDTH 108 0
DWIDTH 3 0
BBX 1 1 0 0
BITMAP
00
ENDCHAR
STARTCHAR uni000D
ENCODING 13
SWIDTH 108 0
DWIDTH 3 0
BBX 1 1 0 0
BITMAP
00
ENDCHAR
STARTCHAR space
ENCODING 32
SWIDTH 108 0
DWIDTH 3 0
BBX 1 1 0 0
BITMAP
00
ENDCHAR
STARTCHAR exclam
ENCODING 33
SWIDTH 336 0
DWIDTH 9 0
BBX 8 24 1 -1
BITMAP
5488
9999
9999
9999
9999
9999
9999
9999
9999
9999
9999
9999
9999
9999
9999
9999
9999
0000
0000
BFFC
0000
BFFC
0000
BFFD
ENDCHAR
STARTCHAR quotedbl
ENCODING 34
SWIDTH 538 0
DWIDTH 15 0
BBX 13 10 1 13
BITMAP
88808880
CCC0CCC0
CCC0CCC0
CCC0CCC0
CCC0CCC0
CCC0CCC0
CCC0CCC0
CCC0CCC0
CCC0CCC0
44404440
ENDCHAR
STARTCHAR numbersign
ENCODING 35
SWIDTH 1014 0
DWIDTH 28 0
BBX 28 26 0 -2
BITMAP
00000888004880
00001998019980
00002664026640
00003364033300
00157331567315
006A666AA666AA
00559995599954
00A9CC9A9CCDA8
0055CCD559CD54
01A999AA999AA4
00026640266400
00033240333000
00033300673000
00066600666000
00099900999000
000CC900CCC000
055CCC559CC540
1A999AAA99AA80
15666552665500
2A7336A7336A40
15733156731500
6A666AAA66AA00
00999009990000
00CCD00CCC0000
00CCC019CC0000
01554015540000
ENDCHAR
STARTCHAR dollar
ENCODING 36
SWIDTH 686 0
DWIDTH 19 0
BBX 18 31 1 -4
BITMAP
0005140000
0009240000
0009240000
0006A50000
01B956F400
0B46A90B40
18B956E490
3286A91A00
A62956E000
D9A2A91000
CCCD564000
CCCC000000
CCCBAA4000
996055E400
672FA91D00
35D056D700
1D6FA93680
07901658C0
00AFE8CCC0
0000099990
0010099990
006FF8CC90
02900698C0
186FF93680
4B9006D700
B46FFA1D00
1B9005E000
016FFA4000
0005140000
0009240000
0009240000
ENDCHAR
STARTCHAR percent
ENCODING 37
SWIDTH 1504 0
DWIDTH 42 0
BBX 42 26 0 -2
BITMAP
0001A50000000000000000
006E5B9000155400000000
01D1A47400266400000000
071E5B4D00333000000000
0DA1A4A700666000000000
298A5A26409A6000000000
3268A29980999000000000
33335CCCC0CCC000000000
66660998C1998006A90000
32730CCCC265806D56D000
3336F5CCC36641D1A92800
265D07698333075E568A00
18D7FD7346660D61A87240
0A7802DA099919CA576980
038BFE2C0C992658A5CCC0
00A401A00CCC33369D9990
001BFE4019983333099990
0000000026643333499990
0000000033242669F8CCD0
000000003330198E0759C0
0000000066600CA2FD7640
000000009990072902D600
00000000CCD00286FE1C00
00000001CCC0007901A000
0000000199800006FE4000
0000000266400000000000
ENDCHAR
STARTCHAR ampersand
ENCODING 38
SWIDTH 1029 0
DWIDTH 29 0
BBX 27 23 1 0
BITMAP
0016AAA4555500
01B95554666600
0746AAA4666600
1C795554666600
3686AAA4666600
A6295554666600
D9A2AAA8666600
CCCD5554666600
CCCC0000666600
CCCAAAAA6666A8
99615555666654
336EAAAA6666A8
66795555666654
9996AAAAA666A8
CCCD5555666654
CCCC0000666600
CCDBFFFE6673F4
96740000336800
735BFFFE258BF4
28A400000CB400
0E1BFFFE075BF4
02D4000001E400
006FFFFE001BF4
ENDCHAR
STARTCHAR quotesingle
ENCODING 39
SWIDTH 257 0
DWIDTH 7 0
BBX 5 10 1 13
BITMAP
8880
CCC0
CCC0
CCC0
CCC0
CCC0
CCC0
CCC0
CCC0
4440
ENDCHAR
STARTCHAR parenleft
ENCODING 40
SWIDTH 410 0
DWIDTH 12 0
BBX 10 26 1 -2
BITMAP
000690
00B950
078690
0D7950
25D690
732D40
966190
999A40
CCCC00
CCCC00
CCCC00
CCCC00
CCCC00
CCCC00
CCCC00
CCCC00
CCCC00
CCCC00
CCC900
99A6E0
672800
368BE0
1CB400
075BE0
01E400
001BE0
ENDCHAR
STARTCHAR parenright
ENCODING 41
SWIDTH 408 0
DWIDTH 11 0
BBX 10 26 1 -2
BITMAP
A50000
5AD000
A46800
5B8A00
A4A340
5B2980
A5CCC0
5C9990
099990
066990
066990
066990
066990
066990
066990
066990
066990
059990
099990
F8CCC0
0759C0
F97240
06D600
F92C00
05E000
FA4000
ENDCHAR
STARTCHAR asterisk
ENCODING 42
SWIDTH 664 0
DWIDTH 19 0
BBX 17 17 1 3
BITMAP
0008880000
0009980000
0409981400
0B4998B400
25B99F8500
1E19987800
E1D1829680
2D2EED2D00
0787E1E000
1A5EF87800
B4B58B4B40
4B4584B440
38799E5A00
069999E000
0909982800
0009980000
0009980000
ENDCHAR
STARTCHAR plus
ENCODING 43
SWIDTH 601 0
DWIDTH 17 0
BBX 15 13 1 5
BITMAP
00888800
00CCCC00
00CCCC00
00CCCC00
AACCCEA8
55CCCD50
AACCCEA8
00CCCC00
BFCCCFF8
00CCCC00
00CCCC00
00CCCC00
00CCCC00
ENDCHAR
STARTCHAR comma
ENCODING 44
SWIDTH 252 0
DWIDTH 7 0
BBX 5 9 1 -4
BITMAP
CCC0
CCC0
CCC0
CCC0
0CC0
18C0
E180
1740
A800
ENDCHAR
STARTCHAR hyphen
ENCODING 45
SWIDTH 473 0
DWIDTH 13 0
BBX 11 5 1 9
BITMAP
AAAAA8
155554
AAAAA8
155554
BFFFFC
ENDCHAR
STARTCHAR period
ENCODING 46
SWIDTH 255 0
DWIDTH 7 0
BBX 5 5 1 0
BITMAP
BFC0
0000
FFC0
0000
FFC0
ENDCHAR
STARTCHAR slash
ENCODING 47
SWIDTH 447 0
DWIDTH 13 0
BBX 12 26 0 -3
BITMAP
000122
000666
000999
000CCD
001CCC
001998
002664
003334
007330
006660
009990
00CCD0
01CCC0
019980
026640
033340
073300
066600
099900
0CCD00
1CCC00
199800
266400
333000
733000
555000
ENDCHAR
STARTCHAR zero
ENCODING 48
SWIDTH 843 0
DWIDTH 24 0
BBX 22 25 1 -1
BITMAP
00006A500000
001B95AE0000
00B46A52D000
028B95AD7400
0A286A478D00
1C9695B8A700
269D2A4A3640
7335D5B299C0
A6670018CCD0
999900099990
CCCC00066660
CCCC00066660
CC9800036660
CCC800066660
CCCC00066660
CC9900099AA0
99A6000CD990
663280759CC0
32587F972680
19D7406D6300
0975BFE2C900
035E401E2800
01E1BFE5A000
002E401B4000
0001BFE40000
ENDCHAR
STARTCHAR one
ENCODING 49
SWIDTH 426 0
DWIDTH 12 0
BBX 10 23 1 0
BITMAP
AAAA90
555550
AAAA90
555550
AAAA90
576660
066660
066660
066660
066660
066660
066660
066660
066660
066660
066660
066660
066660
066660
066660
066660
066660
066660
ENDCHAR
STARTCHAR two
ENCODING 50
SWIDTH 583 0
DWIDTH 16 0
BBX 16 24 0 0
BITMAP
056A5000
7A95AE00
05AA91D0
2A55AD74
05AA4758
1A55B4CD
05AA4D99
0A559666
000066A9
0000D999
0002998C
00067364
000D9960
002658D0
00A67240
019C9600
03669C00
09A63400
14845000
3FFFFFF4
00000000
3FFFFFF4
00000000
3FFFFFF4
ENDCHAR
STARTCHAR three
ENCODING 51
SWIDTH 612 0
DWIDTH 17 0
BBX 17 25 0 -1
BITMAP
016A900000
7E956E4000
016A91D000
2E956D2400
01AA928C00
1E55689600
05AA863300
0A55736200
0000266640
006AA63300
00156B6300
006A91A600
00156E2800
006A918900
00156D6600
006A973300
0015766640
0500366640
0AFFD33300
15001D6700
1AFFE5C900
29401B6800
16BFE4A000
29401B8000
1ABFE40000
ENDCHAR
STARTCHAR four
ENCODING 52
SWIDTH 622 0
DWIDTH 17 0
BBX 16 23 1 0
BITMAP
00088550
0019CC90
003669C0
00673640
00D96300
018CDA00
02698C00
07325800
09673400
1CD96110
258C9264
3369C264
A6324264
85520220
FFFFFFFE
00000000
FFFFFFFE
00000000
FFFFFFFE
00000110
00000264
00000264
00000264
ENDCHAR
STARTCHAR five
ENCODING 53
SWIDTH 691 0
DWIDTH 19 0
BBX 18 24 1 -1
BITMAP
6AAAAAA900
1555555500
6AAAAAA900
1555555400
6AAAAAA900
6AA5555400
6990000000
6990000000
699BFE4000
699001B400
699FFE5D00
699051A340
699AAE25C0
6991528C90
555AAD9990
0000066660
00100A6660
006FF89990
0390079CC0
246FF97680
4B9006D700
A46FF92C00
1A9006E000
016FF90000
ENDCHAR
STARTCHAR six
ENCODING 54
SWIDTH 781 0
DWIDTH 22 0
BBX 20 25 1 -1
BITMAP
00016A5000
002E95AE00
01D16A51E0
0A1E95AD24
18A16A5280
328B95A900
66346A9400
99A7956000
CCCD000000
CCCDBFE800
CCCC401780
CCCDBFF4B0
CCCC410B68
CCCDFAF5C9
CCCC555966
CCCDEAA333
CCCC003273
899A007333
9A61FF9633
735E406DA6
25D2BF928D
0D69405E28
0286BFA5E0
0079405B40
0006BFA400
ENDCHAR
STARTCHAR seven
ENCODING 55
SWIDTH 631 0
DWIDTH 18 0
BBX 16 23 1 0
BITMAP
AAAA6222
55556666
AAAA9966
55559999
AAA9CCCC
55559998
00026998
00026664
00033330
00066660
0009A660
00099990
000CCCC0
001999C0
00269980
00266640
00333300
00666700
00A66600
00999900
00CCCC00
0199CC00
01999800
ENDCHAR
STARTCHAR eight
ENCODING 56
SWIDTH 808 0
DWIDTH 23 0
BBX 21 25 1 -1
BITMAP
0006AA940000
00B9556B4000
0746AA94A000
1C79556A5C00
3286AA91DA00
A629556D7300
D9A2AA936640
CCCE55699980
CCCC00199980
CCDBAAA99980
9974555B9640
635BAAA47700
29E0555B5D00
6E2FEAA49600
96D0005A3240
CCAFFFA25980
CCC800299980
CCCC00199980
CD97FFE69980
9678000B3640
724BFFF8A700
28A400078D00
0A1BFFF97400
01E40006D000
001BFFF90000
ENDCHAR
STARTCHAR nine
ENCODING 57
SWIDTH 782 0
DWIDTH 22 0
BBX 21 25 0 -1
BITMAP
00016A500000
002E95AE0000
01E16A51D000
075E95AD2800
0DA56A528900
298B95A8A300
33686A472640
333395B59980
66660018CC80
3333959CCCC0
32686A4CCCC0
298B969CCCC0
0D74694CCCC0
075BAADCCCC0
01E4550CCCC0
001BAADCCCC0
0000551CCCC0
000100759980
0002FF972640
001D006D6300
0096FFA1CA00
0579405A2800
0786BFA4A000
00B9405B4000
0006BFA40000
ENDCHAR
STARTCHAR colon
ENCODING 58
SWIDTH 262 0
DWIDTH 7 0
BBX 5 13 1 4
BITMAP
AA80
5540
AA80
1540
AA80
1540
0000
0000
BFC0
0000
BFC0
0000
BFC0
ENDCHAR
STARTCHAR semicolon
ENCODING 59
SWIDTH 261 0
DWIDTH 7 0
BBX 5 17 1 0
BITMAP
AA80
5540
AA80
1540
AA80
1540
0000
0000
9880
9980
9980
9980
08C0
1CC0
B5C0
0740
B900
ENDCHAR
STARTCHAR less
ENCODING 60
SWIDTH 670 0
DWIDTH 19 0
BBX 17 21 1 1
BITMAP
0000000040
0000001B40
000006E440
00006D1B40
001B91E440
01B46E4B80
6E4791B800
D1B92E4680
1E46E1B900
E1B91A4000
1B46E40000
E479190000
1B9686E400
F4A4B91B40
B91E46E140
06D1B92E40
006E479140
0001B46E40
00000B9180
0000006E00
0000000280
ENDCHAR
STARTCHAR equal
ENCODING 61
SWIDTH 473 0
DWIDTH 13 0
BBX 11 13 1 4
BITMAP
AAAAA8
555554
AAAAA8
155554
AAAAA8
155554
000000
000000
BFFFFC
000000
BFFFFC
000000
BFFFFC
ENDCHAR
STARTCHAR greater
ENCODING 62
SWIDTH 670 0
DWIDTH 19 0
BBX 17 21 1 1
BITMAP
4000000000
B900000000
46E0000000
B92E400000
4791B80000
B46E4B9000
1B91E46E00
A46D1B8780
1B86E06E40
00791B9180
0005B86E40
002E46D180
06E1B91E40
B91B46E440
46E4791B40
791B92E400
92E46E0000
6E1B900000
91B4000000
6E40000000
9000000000
ENDCHAR
STARTCHAR question
ENCODING 63
SWIDTH 693 0
DWIDTH 19 0
BBX 18 24 1 0
BITMAP
001AA40000
07E55B9000
781AA47800
96E55B8A00
291AA4A240
02E55B58C0
011AA5C990
00655D6660
0000066660
0444596660
0CCDA4D990
0CCC5B58C0
0CCDA47280
0CCD5B8600
0CCD946800
0CCDAAD000
0CCC550000
0CCC000000
0000000000
1FFD000000
0000000000
1FFD000000
0000000000
2FFD000000
ENDCHAR
STARTCHAR at
ENCODING 64
SWIDTH 1076 0
DWIDTH 30 0
BBX 29 27 1 -2
BITMAP
000005AA40000000
0000BE96BE000000
000B916A42E00000
00286E55BD2D0000
01D291AA46D74000
035D2E55B978D000
0975D000078A7000
18DA01AA40A26800
369C1E55B429CC00
633474AA4A099600
9660D795A2467300
C9919C6A29833300
CCC26595CCC26640
CCC333009CC26640
CCC333009CC26640
CCC265949CC26640
C9919D699CC26640
967097A599AB3300
632428556714A300
359D07A935EB8900
1CA740141D152800
0A39B40006EAE000
038A1BFFD0150000
00E1E40000000000
002D1BFFD0000000
0006E50000000000
00005BFFE0000000
ENDCHAR
STARTCHAR A
ENCODING 65
SWIDTH 936 0
DWIDTH 26 0
BBX 26 23 0 0
BITMAP
00001548800000
00003CCC900000
0000699A600000
0000D663300000
00018736640000
00026A999C0000
000331CCC90000
00066599A60000
00099966330000
001CCC73664000
002599A5998000
0033265CCCD000
006633099A6000
00999606633000
01CCCD03366400
025999AA599800
03366555CCCD00
066336A9999600
099A6555667300
0CCC9AAA732640
2999C555669980
3366400018CCD0
663300000D9960
ENDCHAR
STARTCHAR B
ENCODING 66
SWIDTH 862 0
DWIDTH 24 0
BBX 23 23 1 0
BITMAP
6AAAAAA94000
A5555556B400
9AAAAAA91E00
99555556E240
99AAAAA928D0
99955556C960
999AAAA96330
999955573330
999800026664
9999AAAB3330
99995554A660
9999AAAB8C90
99995556D990
9999AAA97330
999955576670
999800026630
9999FFFE3330
99990001D660
9999FFFE5C90
99990000B5C0
9999FFFF8B00
999800007800
9999FFFF9000
ENDCHAR
STARTCHAR C
ENCODING 67
SWIDTH 852 0
DWIDTH 24 0
BBX 23 25 0 -1
BITMAP
000005A90000
0001BA56E400
000B46A91A00
0078B956E1D0
00D786A91D74
025D7A56D75C
0A32D1A968D0
0C962E578A00
199CA000A100
266580001000
333300000000
377600000000
666600000000
266600000000
333300000000
336640000000
2698D0007000
1CCA7802D600
09628BFE1C90
0728B401A288
01CA5BFE4A24
0075E401B4A0
001E1BFE4740
0002E401B800
00001AFE4000
ENDCHAR
STARTCHAR D
ENCODING 68
SWIDTH 886 0
DWIDTH 25 0
BBX 23 23 1 0
BITMAP
6AAAAAA50000
A555555BD000
9AAAAAA47800
9955555B8A00
99AAAAA4A280
9995555B58D0
999AAAA5C960
9999555D6334
999800032668
999800029998
99980001999C
99980001CCCC
9998000199CC
999800019998
999800036698
9998000A7364
999BFFF89670
999000075C90
99BFFFF97580
99000006D700
9BFFFFFA2C00
90000005E000
BFFFFFFA4000
ENDCHAR
STARTCHAR E
ENCODING 69
SWIDTH 706 0
DWIDTH 20 0
BBX 18 23 1 0
BITMAP
448AAAAA90
9999555550
999AAAAA90
9999555550
999AAAAA90
9999555550
9998000000
9998000000
9998000000
999AAA4000
9999550000
999BAA4000
9999550000
999BFF4000
9999000000
9998000000
9998000000
9998000000
999BFFFFE0
9999000000
999BFFFFE0
9999000000
999BFFFFE0
ENDCHAR
STARTCHAR F
ENCODING 70
SWIDTH 683 0
DWIDTH 19 0
BBX 17 23 1 0
BITMAP
448AAAAA80
9999555540
999AAAAA80
9999555540
999AAAAA80
9999555540
9998000000
9998000000
9998000000
9998000000
999AAAAA40
9999555500
999BAAAA80
9999000000
999BFFFF80
9999000000
9998000000
9998000000
9998000000
9998000000
9998000000
9998000000
9998000000
ENDCHAR
STARTCHAR G
ENCODING 71
SWIDTH 908 0
DWIDTH 25 0
BBX 25 25 0 -1
BITMAP
000005A9000000
0001BA56E40000
000B46A91A0000
0078B956E1D000
00D786A91D7400
025D7A56D75C00
0A32D1A968D000
0C962E578A0000
199CA000A10000
26658000100000
33330000000000
37760000000000
66660000266640
26660000266640
33330000266640
33364000266640
2659C000266640
18CD7401B66640
09A34BFEA66640
0728A401B66640
028A1BFEA66640
00A1E401766640
001D1BFEA66640
0002E401766640
00001BFE900000
ENDCHAR
STARTCHAR H
ENCODING 72
SWIDTH 901 0
DWIDTH 25 0
BBX 23 23 1 0
BITMAP
448800008888
99980000CCCC
99980000CCCC
99980000CCCC
99980000CCCC
99980000CCCC
99980000CCCC
99980000CCCC
99980000CCCC
999AAAAACCCC
99995555CCCC
999BAAAACCCC
99990000CCCC
999BFFFFCCCC
99990000CCCC
99980000CCCC
99980000CCCC
99980000CCCC
99980000CCCC
99980000CCCC
99980000CCCC
99980000CCCC
99980000CCCC
ENDCHAR
STARTCHAR I
ENCODING 73
SWIDTH 338 0
DWIDTH 9 0
BBX 7 23 1 0
BITMAP
4488
9998
9998
9998
9998
9998
9998
9998
9998
9998
9998
9998
9998
9998
9998
9998
9998
9998
9998
9998
9998
9998
9998
ENDCHAR
STARTCHAR J
ENCODING 74
SWIDTH 434 0
DWIDTH 12 0
BBX 11 24 0 -1
BITMAP
008888
00CCCC
00CCCC
00CCCC
00CCCC
00CCCC
00CCCC
00CCCC
00CCCC
00CCCC
00CCCC
00CCCC
00CCCC
00CCCC
00CCCC
00CCCC
029998
7E2658
00A334
7F4960
0075D0
7F8740
006900
7F9000
ENDCHAR
STARTCHAR K
ENCODING 75
SWIDTH 815 0
DWIDTH 23 0
BBX 21 23 1 0
BITMAP
448800154880
999800336580
999800A63300
999800CD9600
99980299CC00
999803365800
999809673000
99980CD9A000
9998259CC000
999833268000
999896730000
9999CD960000
9998D9670000
999863364000
99982659C000
999818CD9000
999809A67000
999806336400
999802699C00
9998018CD900
9998009A6300
999800732640
9998002698C0
ENDCHAR
STARTCHAR L
ENCODING 76
SWIDTH 604 0
DWIDTH 17 0
BBX 15 23 1 0
BITMAP
44880000
99980000
99980000
99980000
99980000
99980000
99980000
99980000
99980000
99980000
99980000
99980000
99980000
99980000
99980000
99980000
99980000
99980000
999BFFFC
99990000
999BFFFC
99990000
999BFFFC
ENDCHAR
STARTCHAR M
ENCODING 77
SWIDTH 920 0
DWIDTH 26 0
BBX 24 23 1 0
BITMAP
562000001889
B3640000259D
B98C0000732D
9CD900009A69
9A6300018C99
932680036989
9A9CC0063359
99C9A00D9659
99673019CD99
997658325999
9999CDA73699
999D9689A699
99963358C699
999669969699
99998CD36699
99989A696699
9998732C6699
999800006699
999800006699
999800006699
999800006699
999800006699
999800006699
ENDCHAR
STARTCHAR N
ENCODING 78
SWIDTH 877 0
DWIDTH 25 0
BBX 23 23 1 0
BITMAP
522140015550
B658C0026664
A8C960026664
996734026664
97369C026664
969CDA026664
99DA63026664
996325826664
99658C926664
999C96726664
9996736A6664
999769CD6664
9999CDA62664
9998A6326664
99983258D664
999818C9A264
999809673664
999807369D64
9998029CD924
999800DA6324
9998006325A4
999800258CB4
9998000C9A74
ENDCHAR
STARTCHAR O
ENCODING 79
SWIDTH 933 0
DWIDTH 26 0
BBX 26 25 0 -1
BITMAP
000005A5000000
0001BA5AE40000
000B46A91A0000
0078B956E1D000
00D786A91D7400
025D7A56D35C00
0A32D1A968D600
0C962E578A7340
199CA000A36980
26658000299CC0
333300000CCCC0
37760000099990
66660000099990
26660000099990
333300000C9990
3366400019CCC0
2698D000765980
1CCA7801D63640
09628BFE1CA600
0728B401A28D00
01CA5BFE4A2400
0075E401B4A000
001E1BFE474000
0002E401B80000
00001BFE400000
ENDCHAR
STARTCHAR P
ENCODING 80
SWIDTH 850 0
DWIDTH 24 0
BBX 22 23 1 0
BITMAP
6AAAAAA90000
A5555556E000
9AAAAAA92C00
99555556D700
99AAAAA97580
999555579CD0
999AAAA89960
9999555A6660
999800033330
999800033330
9999AAAD6660
99995551C990
9999AAAF58C0
99995550A280
9999AAAF4A00
999955507800
9999AAAF9000
999955500000
999800000000
999800000000
999800000000
999800000000
999800000000
ENDCHAR
STARTCHAR Q
ENCODING 81
SWIDTH 937 0
DWIDTH 26 0
BBX 26 27 0 -3
BITMAP
000005A5000000
0001BA5AE40000
000B46A91A0000
0078B956E1D000
00D786A91D7400
025D7A56D35C00
0A32D1A968D600
0C962E578A7340
199CA000A36980
26658000299CC0
333300000CCCC0
37760000099990
66660000099990
26660000499990
33330008DC9990
3366405A59CCC0
2698D062765980
1CCA7815D63640
09628BFE1CA600
0728B401A28D00
01CA5BFE4A2400
0075E401B4A000
001E1BFE475400
0002E401B95800
00001BFE58C900
00000000096000
00000000030000
ENDCHAR
STARTCHAR R
ENCODING 82
SWIDTH 843 0
DWIDTH 24 0
BBX 22 23 1 0
BITMAP
6AAAAAA90000
A5555556E000
9AAAAAA92C00
99555556D700
99AAAAA97580
999555579CD0
999AAAA8D960
9999555A6660
999800037660
9999555A6660
9999AAA899A0
999955578CD0
9999AAA97580
99995556D700
9999AAA92D00
99995556F000
9999ABBB7400
9998019A9800
999800CDCC00
999800999900
999800666600
999800333300
999800266640
ENDCHAR
STARTCHAR S
ENCODING 83
SWIDTH 682 0
DWIDTH 19 0
BBX 18 25 1 -1
BITMAP
0016A50000
01B956F400
0B46A91B40
28B956E590
7286A91A00
9A3956E000
CC96A91000
CCCD564000
D998000000
CCCAAA4000
C9A156E000
A62FA91D00
369156D700
1D6FA97240
0790175980
00BFE4CCC0
00001C89C0
00100C9990
006FF8CCC0
03900759C0
246FF97640
4B9006D600
A46FF92C00
1A9005E000
016FFA4000
ENDCHAR
STARTCHAR T
ENCODING 84
SWIDTH 591 0
DWIDTH 17 0
BBX 15 23 1 0
BITMAP
AAAAAAA4
55555554
AAAAAAA4
55555554
AAAAAAA4
5599A950
01999800
01999800
01999800
01999800
01999800
01999800
01999800
01999800
01999800
01999800
01999800
01999800
01999800
01999800
01999800
01999800
01999800
ENDCHAR
STARTCHAR U
ENCODING 85
SWIDTH 905 0
DWIDTH 25 0
BBX 23 24 1 -1
BITMAP
888800008888
CCCC000099CC
CCCC000099CC
CCCC000099CC
CCCC000099CC
CCCC000099CC
CCCC000099CC
CCCC000099CC
CCCC000099CC
CCCC000099CC
CCCC000099CC
CCCC000099CC
CCCC000099CC
9CCC0000CCCC
99990000CCCC
966700025998
6335D01A3268
369D6FE5D630
1C97901B5DA0
0A286FE475C0
028B90178700
00B46FE96800
001B9016D000
0001AFE90000
ENDCHAR
STARTCHAR V
ENCODING 86
SWIDTH 940 0
DWIDTH 26 0
BBX 26 23 0 0
BITMAP
52220000055550
332640000CC990
26998000199CC0
18CCC000266580
0D99A000733340
066730009A6600
03326400CC9900
0265980199CC00
018CCC02665800
00D99A07333400
00666309666000
0033364CD99000
002659998CC000
0019CC66698000
000C9973324000
000A6696670000
000331CD990000
00026598CC0000
00019666980000
0000C733240000
0000AA66700000
00003C99900000
000029CCC00000
ENDCHAR
STARTCHAR W
ENCODING 87
SWIDTH 1161 0
DWIDTH 33 0
BBX 32 23 0 0
BITMAP
5512005555005122
333300999B00A666
326640CCCF409999
266681999D80CCCC
1999825598C1999C
0CCCC2666CD26598
0999933339926664
09A6666666633330
0666699963366660
03331C99B36D99A0
02664CCCE65CC990
01999999999CCCC0
0198A6668CE99980
00CC7332CDB66640
009963339A733340
0066666666633300
0072999933A66600
0031CCCC26D99900
002599CC29CCCC00
001A999819998C00
000E66640E599800
000F33300B666400
000A667007333000
ENDCHAR
STARTCHAR X
ENCODING 88
SWIDTH 876 0
DWIDTH 25 0
BBX 24 23 0 0
BITMAP
621540025489
369CD0063258
1CDA700DA634
0A736829CDA0
03658D7369C0
018C95DA7340
0096329C9A00
003257259C00
0018C9632400
000958C96000
00073258C000
0001A6368000
0001CDA76000
000369CD3400
000A736A9800
001C9A74C900
00258C996300
006325932580
00C963258C90
0258C91C9670
0636980A7368
0DA7340369CD
29CDA001CDA7
ENDCHAR
STARTCHAR Y
ENCODING 89
SWIDTH 789 0
DWIDTH 22 0
BBX 22 23 0 0
BITMAP
555500055550
33330009CCC0
266640199980
0CCCC0266700
099990666600
033330999900
026665999800
00CCCA666400
009996666000
006669999000
00265CC98000
0019A6664000
000973330000
000699990000
0002CCCC0000
000199980000
000199980000
000199980000
000199980000
000199980000
000199980000
000199980000
000199980000
ENDCHAR
STARTCHAR Z
ENCODING 90
SWIDTH 854 0
DWIDTH 24 0
BBX 22 23 1 0
BITMAP
AAAAAAAAAA90
5555555555E0
AAAAAAAA4740
555555552860
AAAAAA91D280
5555554A1D60
AAAAA474A1D0
555542874A10
00001D2875A0
0000A1D28B40
00074A1D6800
002874A2D000
01D2875A0000
0A1D28740000
74A1D6800000
874A1D000000
2875A1BFFFE0
D28740000000
1D287FFFFFE0
A1D000000000
4A2FFFFFFFE0
740000000000
FFFFFFFFFFE0
ENDCHAR
STARTCHAR bracketleft
ENCODING 91
SWIDTH 320 0
DWIDTH 9 0
BBX 7 26 1 -2
BITMAP
6AA8
A554
96A8
9954
99A8
9994
9990
9990
9990
9990
9990
9990
9990
9990
9990
9990
9990
9990
9990
9990
9990
99BC
9900
9BFC
9000
BFFC
ENDCHAR
STARTCHAR backslash
ENCODING 92
SWIDTH 448 0
DWIDTH 13 0
BBX 12 26 0 -3
BITMAP
551000
333000
336400
266400
199800
0CCC00
0CD900
099900
066600
033300
033640
026640
019980
00CCC0
00CD90
009990
006660
003330
003264
002664
001998
000CCC
000C99
000999
000666
000222
ENDCHAR
STARTCHAR bracketright
ENCODING 93
SWIDTH 319 0
DWIDTH 9 0
BBX 8 26 0 -2
BITMAP
2AA9
155A
2A96
1566
2A66
1666
0666
0666
0666
0666
0666
0666
0666
0666
0666
0666
0666
0666
0666
0666
0666
7E66
0066
7FE6
0006
7FFE
ENDCHAR
STARTCHAR asciicircum
ENCODING 94
SWIDTH 475 0
DWIDTH 13 0
BBX 12 11 1 9
BITMAP
009500
01E600
027300
032680
0958C0
0CDD90
198660
264330
330264
A6019C
C900C9
ENDCHAR
STARTCHAR underscore
ENCODING 95
SWIDTH 511 0
DWIDTH 14 0
BBX 12 5 1 -5
BITMAP
BFFFFF
000000
BFFFFF
000000
BFFFFF
ENDCHAR
STARTCHAR grave
ENCODING 96
SWIDTH 472 0
DWIDTH 13 0
BBX 11 7 1 20
BITMAP
040000
1B4000
A1B400
1E5B40
01E5B4
001E54
0001D0
ENDCHAR
STARTCHAR a
ENCODING 97
SWIDTH 832 0
DWIDTH 23 0
BBX 22 22 0 -1
BITMAP
000005000000
0002FAB90000
002D0546E000
00A1BAB92800
028A45468A00
0A35BAB87280
0CD7454758C0
259C7AB5C990
3265801D6660
333300073330
666600033330
666600026670
376700026670
333240026670
2659E4566670
18CA1BA26670
0962E5666670
035D1A926670
01D6E5666670
00291A926670
0006E5666670
000016500000
ENDCHAR
STARTCHAR b
ENCODING 98
SWIDTH 720 0
DWIDTH 20 0
BBX 19 20 1 0
BITMAP
AAAAAA9000
9555556E00
9AAAAA9280
9955556C90
99AAAA9A70
9995557330
9990002664
999555B330
999AAA4A70
999555B890
999555B8D0
999AAA4A60
999555A330
9990002664
9990003330
999FFFD630
9990001DA0
999FFFE1C0
9990001B40
998FFFE400
ENDCHAR
STARTCHAR c
ENCODING 99
SWIDTH 736 0
DWIDTH 21 0
BBX 20 22 0 -1
BITMAP
00001A9400
0007E56B40
00291A91A4
00D2E56E5D
035D1A91D6
0A75E56D34
0CD71A9280
259CA56840
3266800400
3333000000
6666000000
6666000000
3333000000
3336400000
2658E01C00
18CA2FE180
0962901A24
07286FE4A1
01D7901B4D
00746FE474
000B901780
00006FE900
ENDCHAR
STARTCHAR d
ENCODING 100
SWIDTH 833 0
DWIDTH 23 0
BBX 22 20 1 0
BITMAP
AAAAAA940000
9555556B4000
9AAAAA91E000
9955556E2800
99AAAA928A00
9995556D6340
999AAA972580
999955759CC0
9998001CCD90
999800099990
999800099990
9998000CD990
99980029CCC0
999BFFE36980
9990001D7240
99BFFFE5D600
9900001B5C00
9BFFFFE4B400
900000178000
BFFFFFE80000
ENDCHAR
STARTCHAR e
ENCODING 101
SWIDTH 666 0
DWIDTH 19 0
BBX 17 20 1 0
BITMAP
988AAAAA40
9999555540
999AAAAA40
9999555500
999AAAAA40
9999555500
9998000000
9999555500
999AAAAA00
9999555500
999AAAAA00
9999555500
999AAAAA00
9998000000
9998000000
999BFFFF80
9999000000
999BFFFF80
9999000000
999BFFFF80
ENDCHAR
STARTCHAR f
ENCODING 102
SWIDTH 625 0
DWIDTH 18 0
BBX 16 20 1 0
BITMAP
988AAAA9
99995555
999AAAA9
99995554
999AAAA9
99995554
99980000
99980000
999AAAA8
99995554
999AAAA8
99995554
999BAAA8
99990000
99980000
99980000
99980000
99980000
99980000
99980000
ENDCHAR
STARTCHAR g
ENCODING 103
SWIDTH 827 0
DWIDTH 23 0
BBX 22 22 0 -1
BITMAP
00001A940000
0007E56B4000
00291A91A400
00D2E56E5D00
035D1A91D600
0A75E56D3400
0CD71A928000
259CA5684000
326680040000
333300000000
666600000000
666600033330
333300033330
333640033330
2658E01B3330
18CA2FE73330
0962901B3330
07286FE73330
01D7901B3330
00746FEB3330
000B90173330
00006FE90000
ENDCHAR
STARTCHAR h
ENCODING 104
SWIDTH 830 0
DWIDTH 23 0
BBX 21 20 1 0
BITMAP
988800088880
9998000CCCC0
9998000CCCC0
9998000CCCC0
9998000CCCC0
9998000CCCC0
9998000CCCC0
999AAAACCCC0
9999555CCCC0
999BAAACCCC0
9999000CCCC0
999BFFFCCCC0
9999000CCCC0
9998000CCCC0
9998000CCCC0
9998000CCCC0
9998000CCCC0
9998000CCCC0
9998000CCCC0
9998000CCCC0
ENDCHAR
STARTCHAR i
ENCODING 105
SWIDTH 337 0
DWIDTH 9 0
BBX 7 20 1 0
BITMAP
9888
9998
9998
9998
9998
9998
9998
9998
9998
9998
9998
9998
9998
9998
9998
9998
9998
9998
9998
9998
ENDCHAR
STARTCHAR j
ENCODING 106
SWIDTH 393 0
DWIDTH 11 0
BBX 10 23 0 -3
BITMAP
022220
033260
033260
033260
033260
033260
033260
033260
033260
033260
033260
033260
033260
033260
066660
096660
74D990
0758C0
797280
069600
792800
06E000
790000
ENDCHAR
STARTCHAR k
ENCODING 107
SWIDTH 801 0
DWIDTH 22 0
BBX 21 20 1 0
BITMAP
988800215580
999800673240
999800C9A600
99980298CD00
999803365800
999809673000
99981CC9A000
99982698C000
999863364000
999899670000
9998CD960000
9998A6334000
999832698000
999819CC9000
99980D966000
999806336400
999802699C00
999801CC9900
999800966300
999800336580
ENDCHAR
STARTCHAR l
ENCODING 108
SWIDTH 583 0
DWIDTH 16 0
BBX 15 20 1 0
BITMAP
98880000
99980000
99980000
99980000
99980000
99980000
99980000
99980000
99980000
99980000
99980000
99980000
99980000
99980000
99980000
999BFFF4
99990000
999BFFF4
99990000
999BFFF4
ENDCHAR
STARTCHAR m
ENCODING 109
SWIDTH 1167 0
DWIDTH 33 0
BBX 31 21 1 0
BITMAP
0005A94006A90000
007A56F4B956E400
0385A95F86A91E00
0D6A56E6F956E280
25D1A91DA6A92890
635E56D77D56DA70
9A61A9366AA97324
999A56599D576664
CCCC019998019994
CCCC00D998019998
CCCC00D998019998
CCCC00D998019998
CCCC00D998019998
CCCC00D998019998
CCCC00D998019998
CCCC00D998019998
CCCC00D998019998
CCCC00D998019998
CCCC00D998019998
CCCC00D998019998
CCCC00D998019998
ENDCHAR
STARTCHAR n
ENCODING 110
SWIDTH 787 0
DWIDTH 22 0
BBX 20 20 1 0
BITMAP
9225400226
B258C00666
A9C9A00666
9DA7340666
9736580666
9658C90666
99C9A70666
99A7368666
997658C666
9998C96666
9999A73666
9997369966
999258C966
9990C96766
9990A736A6
99903698D6
999018C966
999009673A
999007369E
99900298DA
ENDCHAR
STARTCHAR o
ENCODING 111
SWIDTH 833 0
DWIDTH 23 0
BBX 23 22 0 -1
BITMAP
00001A940000
0007E56B4000
00291A90B000
00D2E56E5D00
035D1A91D700
0A75E56D3580
0CD71A928C90
259CA5689660
3266800A7330
333300036664
666600026664
666600026664
333300026664
333640073330
2658E01DA660
18CA2FE18D90
0962901A29C0
07286FE4A340
01D7901B4900
00746FE47400
000B90179000
00006FE90000
ENDCHAR
STARTCHAR p
ENCODING 112
SWIDTH 781 0
DWIDTH 22 0
BBX 20 20 1 0
BITMAP
AAAAAAA400
9555555B40
9AAAAAA5D0
9955555E24
99AAAA928C
9995556C99
999AAA9A66
9999557333
9999557333
9999AA9666
9999556C9A
9999AA928C
9999556E28
9999AAA5E0
9999556B40
9999AAA400
9998000000
9998000000
9998000000
9998000000
ENDCHAR
STARTCHAR q
ENCODING 113
SWIDTH 788 0
DWIDTH 22 0
BBX 21 23 0 -3
BITMAP
0001AAAAAA80
002E55555580
01E1AAAAA980
035E55555980
0975AAAA9980
18CB55559980
2658AAA89980
3332955C9980
6666000C9980
6666000C9980
3333000C9980
3326EA9C9980
259D155C9980
1C97AA9C9980
0A28555C9980
0287AA9C9980
00B4155C9980
001BEA9C9980
0000555C9980
0000000C9980
0000000C9980
0000000C9980
000000089980
ENDCHAR
STARTCHAR r
ENCODING 114
SWIDTH 831 0
DWIDTH 23 0
BBX 22 20 1 0
BITMAP
AAAAAAA90000
95555556E000
9AAAAAA92C00
99555556D700
99AAAAA97680
9995555758C0
999AAAA8C990
999955599990
9999555D9990
9999AAA5CCD0
9999555B59C0
9999AAA47280
9999555A8A00
9999AAA52C00
9999555AE000
9999ABBA6000
999803333000
999802666400
999801D99800
999800DDDD00
ENDCHAR
STARTCHAR s
ENCODING 115
SWIDTH 683 0
DWIDTH 19 0
BBX 18 21 1 -1
BITMAP
00AFBF9000
0B90406E00
286EAF92C0
6291506D40
D96EAF9500
CCD0006000
D8C0000000
CCA5540000
9A1AABE000
72E5542D00
1D1AAB9740
06E5547580
005AAB8CC0
000000D990
010000D990
01E95B9CC0
1D15947580
D2EA6B9700
2915946C00
06EAABD000
0015540000
ENDCHAR
STARTCHAR t
ENCODING 116
SWIDTH 588 0
DWIDTH 16 0
BBX 15 20 1 0
BITMAP
AAAAAAA4
55555554
AAAAAAA4
55555550
AAAAAAA4
55555550
01999800
01999800
01999800
01999800
01999800
01999800
01999800
01999800
01999800
01999800
01999800
01999800
01999800
01999800
ENDCHAR
STARTCHAR u
ENCODING 117
SWIDTH 795 0
DWIDTH 22 0
BBX 20 21 1 -1
BITMAP
8888002222
CCCC002733
CCCC002733
CCCC002733
CCCC002733
CCCC002733
CCCC002733
CCCC002733
CCCC002733
CCCC002733
CCCC002733
CCCC003333
9999007333
9A6741D666
6735BE5C99
268E40B58C
1CA1BF8B24
062E4078A0
02D6FF9280
0069006D00
0006BF9000
ENDCHAR
STARTCHAR v
ENCODING 118
SWIDTH 855 0
DWIDTH 24 0
BBX 24 20 0 0
BITMAP
562200008885
3326400198CC
269980026698
18CCC0073334
0D99A0096660
0667300CD990
033264198CC0
026998266980
018CCC333240
00D999966700
006661CD9900
00333598CC00
002656669800
0019C7332400
000C9A667000
00065C999000
000319CCC000
000266598000
0001B3364000
0000E6630000
ENDCHAR
STARTCHAR w
ENCODING 119
SWIDTH 1129 0
DWIDTH 32 0
BBX 30 21 1 -1
BITMAP
8888015660055550
CCCC026664066990
CCCC026664066990
CCCC026664066990
CCCC026664066990
CCCC026664066990
CCCC026664066990
CCCC026664066990
CCCC026664066990
CCCC026664066990
CCCC026664066990
CCCC026664066990
CCCC026664099990
999A5B33395D9990
9661A4A676A5CCC0
735E5B89B95A2980
25D1A969D6A4A340
0D6E5AD7B95B8A00
0285A52F46A47800
007A5AE1B96B9000
0005A50016940000
ENDCHAR
STARTCHAR x
ENCODING 120
SWIDTH 790 0
DWIDTH 22 0
BBX 22 20 0 0
BITMAP
625890215890
25C960A72580
0CA725CD6340
06369768CA00
0258DA725C00
01C95C963400
00A3358DA000
0035A369C000
001DCA724000
00065CD60000
0006368D0000
000DA7264000
0029C9618000
007358DC9000
00DA329A3000
029C97635800
07258D25C900
0D63698CA700
28CA70D63680
725CD07258D0
ENDCHAR
STARTCHAR y
ENCODING 121
SWIDTH 733 0
DWIDTH 21 0
BBX 20 20 0 0
BITMAP
5555002222
3333006666
19998099CC
0CCC919998
0666626660
0332666660
0199899990
00C9999980
0066266640
0032766600
0019999900
000DCC9800
0007666400
0003333000
0003333000
0003333000
0003333000
0003333000
0003333000
0003333000
ENDCHAR
STARTCHAR z
ENCODING 122
SWIDTH 714 0
DWIDTH 20 0
BBX 19 20 0 0
BITMAP
2AAAA98950
15555758D8
2AAAAA3298
15555C9734
2AAA65CDA0
15556368C0
0000DA3240
00029C9600
0007258C00
000D636400
0028CA7000
00729CD000
0097358000
018DA30000
0368C90000
0A7259FFFC
1C96340000
358DABFFFC
6329C00000
4A726FFFFC
ENDCHAR
STARTCHAR braceleft
ENCODING 123
SWIDTH 396 0
DWIDTH 11 0
BBX 11 30 0 -6
BITMAP
0005A4
002E50
00D1A4
025E50
0335A4
066750
059900
099900
099900
099900
099900
099900
059900
694900
16D800
693400
169800
78CC00
099900
099900
099900
099900
099900
099900
066600
0632F4
025D00
01D6F4
007900
0006F4
ENDCHAR
STARTCHAR bar
ENCODING 124
SWIDTH 266 0
DWIDTH 7 0
BBX 6 26 1 -3
BITMAP
5480
9990
9990
9990
9990
9990
9990
9990
9990
9990
9990
9990
9990
9990
9990
9990
9990
9990
9990
9990
9990
9990
9990
9990
9990
9990
ENDCHAR
STARTCHAR braceright
ENCODING 125
SWIDTH 396 0
DWIDTH 11 0
BBX 11 30 0 -6
BITMAP
2A4000
15A000
2A1C00
16D600
297240
166540
019980
019980
019980
019980
019980
019980
00CCB4
009A00
0062F4
006D00
00C6F4
019840
019980
019980
019980
019980
019980
019980
025980
7E3640
01A700
7E4D00
01B400
7E8000
ENDCHAR
STARTCHAR asciitilde
ENCODING 126
SWIDTH 665 0
DWIDTH 19 0
BBX 17 6 1 15
BITMAP
06AAAA1540
2955551980
A1AAAAB240
9A55554700
CC2AAABD00
4415554000
ENDCHAR
STARTCHAR uni00A0
ENCODING 160
SWIDTH 108 0
DWIDTH 3 0
BBX 1 1 0 0
BITMAP
00
ENDCHAR
STARTCHAR exclamdown
ENCODING 161
SWIDTH 336 0
DWIDTH 9 0
BBX 8 24 1 -1
BITMAP
5488
9999
9999
9999
9999
9999
9999
9999
9999
9999
9999
9999
9999
9999
9999
9999
9999
0000
0000
BFFC
0000
BFFC
0000
BFFD
ENDCHAR
STARTCHAR cent
ENCODING 162
SWIDTH 708 0
DWIDTH 20 0
BBX 18 28 1 -3
BITMAP
0000860000
0000860000
0000860000
0001694000
002E56B800
01D1A94B40
071E56B5D0
1CA5A91E20
368A56E240
6728A92800
99A796C400
CCC9005000
CD9C000000
9998000000
CCCC000000
CCDA005000
9A62968400
6328692800
258B96D340
0D74651D70
075B9AE1D0
01E0551A40
001EAAF400
0000550000
0000860000
0000860000
0000860000
0000410000
ENDCHAR
STARTCHAR sterling
ENCODING 163
SWIDTH 689 0
DWIDTH 19 0
BBX 18 24 1 0
BITMAP
0006A94000
00B956B800
0746A94780
1C7956B490
3686A94A00
672956A400
99A1A95000
98DA558000
CCCC000000
CCCC000000
CCCC555400
CCCDAAA800
CCCC555400
CCCDAAA800
CCCD555400
CCCDAAA800
CCCC000000
CCCC000000
CCCC000000
CCCFFFFC00
CCCC000000
CCCFFFFC00
CCCC000000
CCCFFFFC00
ENDCHAR
STARTCHAR currency
ENCODING 164
SWIDTH 715 0
DWIDTH 20 0
BBX 18 22 1 -1
BITMAP
0340001C00
15C0003580
8D6000A720
A726A98DA0
35B956E5C0
1DD6A97740
072D578D00
096000A600
0CC0003300
1980002640
1980002640
1980002640
0CC0003240
0D90006300
063401D900
0A8BAE5A00
29A451A680
635FAF9CA0
CA7050D630
18D0007280
0240001800
0100000400
ENDCHAR
STARTCHAR yen
ENCODING 165
SWIDTH 796 0
DWIDTH 22 0
BBX 21 23 1 0
BITMAP
555400155540
CCCC00266640
666600666600
333300999900
199980D99800
0CCCC2666400
055A63326000
033329999000
02664CCCC000
00CCA6664000
009973330000
003266990000
0025CCCC0000
001999940000
000B33300000
000666600000
0BF6666FF000
000666600000
0BF6666FF000
000666600000
000666600000
000666600000
000666600000
ENDCHAR
STARTCHAR brokenbar
ENCODING 166
SWIDTH 263 0
DWIDTH 7 0
BBX 5 26 1 -3
BITMAP
4880
9980
9980
9980
9980
9980
9980
9980
9980
9980
9980
0000
0000
0000
0000
9880
9980
9980
9980
9980
9980
9980
9980
9980
9980
9980
ENDCHAR
STARTCHAR section
ENCODING 167
SWIDTH 108 0
DWIDTH 3 0
BBX 1 1 0 0
BITMAP
00
ENDCHAR
STARTCHAR dieresis
ENCODING 168
SWIDTH 556 0
DWIDTH 16 0
BBX 14 4 1 20
BITMAP
88805550
CCC06990
CCC06990
44401040
ENDCHAR
STARTCHAR copyright
ENCODING 169
SWIDTH 869 0
DWIDTH 24 0
BBX 23 23 1 1
BITMAP
00005A500000
000BFAFE4000
007E4006E000
02E000007800
07406A901E00
1E02FABD0780
2C0F400B82D0
742D000180E0
B074000000B0
E0B000000074
D0E000000034
D0D000000034
D0E000000034
E0E000000074
A0B000000070
7038000040A0
381E0007C1D0
1D07E56F03C0
0B00BFE40B40
03D000002D00
00B80001F400
001FA56F8000
0001BFE40000
ENDCHAR
STARTCHAR ordfeminine
ENCODING 170
SWIDTH 833 0
DWIDTH 23 0
BBX 22 22 1 -1
BITMAP
000015000000
000AEAF80000
007915078000
0286EAE4B000
0A29151A1C00
1CE2EAE5DA00
329D151D7340
6735EAD36580
99A740298CC0
CCCD000CCCC0
CCCC00099990
CCCC00099990
CCCC00099990
999A00099990
A66290599990
33686E999990
29C795699990
0D746A499990
038B95A99990
00A46A499990
001B95A99990
000059400000
ENDCHAR
STARTCHAR guillemotleft
ENCODING 171
SWIDTH 911 0
DWIDTH 26 0
BBX 24 14 1 3
BITMAP
000068000019
0007900006E4
01B928007919
1E46E01B92E4
E4B918646E19
1B86E40B91B4
E46D00786E40
1B9680079290
B4A4B879646D
B91E446E1B90
06E1B802E46D
002E44001B85
0001B40000B9
000004000005
ENDCHAR
STARTCHAR logicalnot
ENCODING 172
SWIDTH 718 0
DWIDTH 20 0
BBX 18 9 1 6
BITMAP
AAAAAAA220
5555557330
AAAAAAB330
1555557330
AAAAAAF330
0000007330
0000003330
0000003330
0000003330
ENDCHAR
STARTCHAR registered
ENCODING 174
SWIDTH 869 0
DWIDTH 24 0
BBX 23 23 1 1
BITMAP
00005A500000
000BFAFE4000
007E4006E000
02E000007800
074000001E00
1E0155500780
2C07FFFD02D0
7407401F00E0
B007400740B0
E00740034074
D007400B4034
D007AAAE0034
D007FFF40034
E00740E00074
A00740740070
7007403800A0
3807402D01D0
1D07400E03C0
0B0000000B40
03D000002D00
00B80001F400
001FA56F8000
0001BFE40000
ENDCHAR
STARTCHAR degree
ENCODING 176
SWIDTH 330 0
DWIDTH 9 0
BBX 8 8 1 21
BITMAP
1A90
6568
9998
A429
D869
9698
29A0
0140
ENDCHAR
STARTCHAR plusminus
ENCODING 177
SWIDTH 598 0
DWIDTH 17 0
BBX 15 17 1 1
BITMAP
00888800
00CCCC00
00CCCC00
00CCCC00
AACCCEA8
55CCCD50
AACCCEA8
00CCCC00
FFCCCFF8
00CCCC00
00CCCC00
00CCCC00
00CCCC00
00000000
3FFFFFF0
00000000
3FFFFFF0
ENDCHAR
STARTCHAR uni00B2
ENCODING 178
SWIDTH 435 0
DWIDTH 12 0
BBX 11 18 1 5
BITMAP
16A500
A956D0
16A970
695764
000264
000730
0009A0
002980
007700
00D900
026800
0A7000
1CD000
364000
560000
FFFFE0
000000
FFFFE0
ENDCHAR
STARTCHAR uni00B3
ENCODING 179
SWIDTH 515 0
DWIDTH 14 0
BBX 14 20 0 3
BITMAP
05A94000
7A56E400
06A91D00
2956D700
06A93640
19569980
0000D980
00555980
00AAF540
00550A00
00AAE280
00551C90
00AADA50
00006660
0AA6D950
05551C90
1EAAE580
01554A00
2EAAB800
01554000
ENDCHAR
STARTCHAR acute
ENCODING 180
SWIDTH 472 0
DWIDTH 13 0
BBX 11 7 1 20
BITMAP
000050
0006D0
006D2C
0692E0
692E00
52E000
0D0000
ENDCHAR
STARTCHAR uni00B5
ENCODING 181
SWIDTH 802 0
DWIDTH 22 0
BBX 21 23 1 -3
BITMAP
558800155540
999900266640
999900266640
999900266640
999900266640
999900266640
999900266640
999900266640
999900266640
999900266640
999900266640
999900266640
999900366640
999900A73300
9999FF4DA600
99990075C900
9999FF976800
999900687000
9999FF928000
9999006E0000
9999FF900000
999900000000
999900000000
ENDCHAR
STARTCHAR paragraph
ENCODING 182
SWIDTH 676 0
DWIDTH 19 0
BBX 17 23 1 -3
BITMAP
001AAAAA40
01E5555680
0A5AAAA580
28B5555980
728AAA9980
9639559980
CC96A99980
CCCD599980
CCCD599980
CC96A99980
9679599980
728AA99980
28A5599980
0A5AA99980
01E5599980
001AA99980
0000199980
0000199980
0000199980
0000199980
0000199980
0000199980
00001F9F80
ENDCHAR
STARTCHAR periodcentered
ENCODING 183
SWIDTH 260 0
DWIDTH 7 0
BBX 5 6 1 10
BITMAP
AA80
5540
AA80
5540
AA80
1540
ENDCHAR
STARTCHAR cedilla
ENCODING 184
SWIDTH 321 0
DWIDTH 9 0
BBX 7 10 1 -11
BITMAP
0154
0698
3958
62A8
9A50
9900
9A54
61A4
2E54
05A4
ENDCHAR
STARTCHAR uni00B9
ENCODING 185
SWIDTH 359 0
DWIDTH 10 0
BBX 8 16 1 7
BITMAP
AAAA
5555
AAAA
5776
0336
0336
0336
0336
0336
0336
0336
0336
0336
0336
0336
0336
ENDCHAR
STARTCHAR ordmasculine
ENCODING 186
SWIDTH 835 0
DWIDTH 23 0
BBX 22 22 1 -1
BITMAP
00006A500000
001B95AD0000
00B46A52D000
028B95A97400
0A786A478D00
18D795B89700
325D6A4A3640
6632D5A299C0
99960018CCD0
CCCC00099990
CCCC00066690
CCD800066660
CCCC00099990
999A001CC990
A66280759CC0
7368BF972680
25CB4068A300
0D75BF928900
075E406E2800
01E1BFA1E000
002E405A4000
0001BFA40000
ENDCHAR
STARTCHAR guillemotright
ENCODING 187
SWIDTH 912 0
DWIDTH 26 0
BBX 24 14 1 3
BITMAP
A40000740000
1B40001B9000
A1B900646D00
2E46D01B86E4
91B86C64B919
6E4B901E46E4
01B46C01B92D
0A5B900686D0
B8687C79196D
46D1B806E479
B91E406D1B90
46E00052E400
7900002E0000
400000500000
ENDCHAR
STARTCHAR onequarter
ENCODING 188
SWIDTH 1236 0
DWIDTH 35 0
BBX 34 26 0 -3
BITMAP
6AAA40014440000000
155540029980000000
6AAA40026640000000
15DA80033300000000
019980066700000400
0199800A6600269800
019980099900732400
0199800CCC00967000
019980199C01CC9000
01998029980259C000
019980266403364000
01998033300A630000
01998066700CDA1A40
019980A660298C1A40
019980999021541540
019980CCC03FFFFFF0
000001998000000000
00000259803FFFFFF0
000002664000000000
00000333003FFFFFF0
000006660000001540
000009660000001A40
000009990000001640
00000CCC0000000000
000019980000000000
000015540000000000
ENDCHAR
STARTCHAR onehalf
ENCODING 189
SWIDTH 1154 0
DWIDTH 32 0
BBX 32 26 0 -3
BITMAP
6AAA400144400000
1555400299800000
6AAA400266400000
15DA800333000000
0199800667000000
0199800A6605AA40
01998009991955B4
0199800CCC06AA4D
019980199C09559A
0199802998000099
01998026640000CC
0199803330000268
0199806670000A60
019980A660001DD0
0199809990003640
019980CCC0009A00
0000019980019C00
0000025980073400
00000266400D9000
0000033300144000
00000666003FFFF8
0000096600000000
00000999003FFFF8
00000CCC00000000
0000199800000000
0000155400000000
ENDCHAR
STARTCHAR threequarters
ENCODING 190
SWIDTH 1345 0
DWIDTH 38 0
BBX 37 26 0 -3
BITMAP
05A90000015540000000
7A56E000026640000000
06A91D00033640000000
2956D700033300000000
06A93640066600011000
195659800999009A6000
000199800CD901CC9000
005559800CCC0259C000
01AAE540199803364000
00551A0026640A630000
01AAE28033640CDA0000
00551CC03330298C0000
01AAD990666032686600
000066609990A7306600
0AA6D990CD9085505500
05551CC0CCC0FFFFFFC0
1EAAE681998000000000
01554A026640FFFFFFC0
3EAAB403364000000000
015540033300FFFFFFC0
00000006660000005500
00000009990000006600
0000000CC90000006600
0000000CCC0000000000
00000019980000000000
00000015540000000000
ENDCHAR
STARTCHAR questiondown
ENCODING 191
SWIDTH 693 0
DWIDTH 19 0
BBX 18 24 1 0
BITMAP
001AA40000
07E55B9000
781AA47800
96E55B8A00
291AA4A240
02E55B58C0
011AA5C990
00655D6660
0000066660
0444596660
0CCDA4D990
0CCC5B58C0
0CCDA47280
0CCD5B8600
0CCD946800
0CCDAAD000
0CCC550000
0CCC000000
0000000000
1FFD000000
0000000000
1FFD000000
0000000000
2FFD000000
ENDCHAR
STARTCHAR Agrave
ENCODING 192
SWIDTH 936 0
DWIDTH 26 0
BBX 26 32 0 0
BITMAP
00040000000000
000B4000000000
00A4B400000000
001E4B40000000
0001E4B8000000
00001A44000000
000001A0000000
00000000000000
00000000000000
00001548800000
00003CCC900000
0000699A600000
0000D663300000
00018736640000
00026A999C0000
000331CCC90000
00066599A60000
00099966330000
001CCC73664000
002599A5998000
0033265CCCD000
006633099A6000
00999606633000
01CCCD03366400
025999AA599800
03366555CCCD00
066336A9999600
099A6555667300
0CCC9AAA732640
2999C555669980
3366400018CCD0
663300000D9960
ENDCHAR
STARTCHAR Aacute
ENCODING 193
SWIDTH 936 0
DWIDTH 26 0
BBX 26 32 0 0
BITMAP
00000000010000
000000001A4000
00000001E4A000
0000001E5B4000
000001E5B40000
0000015B400000
00000074000000
00000000000000
00000000000000
00001548800000
00003CCC900000
0000699A600000
0000D663300000
00018736640000
00026A999C0000
000331CCC90000
00066599A60000
00099966330000
001CCC73664000
002599A5998000
0033265CCCD000
006633099A6000
00999606633000
01CCCD03366400
025999AA599800
03366555CCCD00
066336A9999600
099A6555667300
0CCC9AAA732640
2999C555669980
3366400018CCD0
663300000D9960
ENDCHAR
STARTCHAR Acircumflex
ENCODING 194
SWIDTH 936 0
DWIDTH 26 0
BBX 26 32 0 0
BITMAP
00000288000000
000003CD000000
00000696000000
00000973000000
00001C66400000
00002599800000
0000224C800000
00000000000000
00000000000000
00001548800000
00003CCC900000
0000699A600000
0000D663300000
00018736640000
00026A999C0000
000331CCC90000
00066599A60000
00099966330000
001CCC73664000
002599A5998000
0033265CCCD000
006633099A6000
00999606633000
01CCCD03366400
025999AA599800
03366555CCCD00
066336A9999600
099A6555667300
0CCC9AAA732640
2999C555669980
3366400018CCD0
663300000D9960
ENDCHAR
STARTCHAR Atilde
ENCODING 195
SWIDTH 936 0
DWIDTH 26 0
BBX 26 30 0 0
BITMAP
0001AAAA455000
001E5555499000
0024AAAAA8D000
00339555528000
00661AAAAE0000
00110555500000
00000000000000
00001548800000
00003CCC900000
0000699A600000
0000D663300000
00018736640000
00026A999C0000
000331CCC90000
00066599A60000
00099966330000
001CCC73664000
002599A5998000
0033265CCCD000
006633099A6000
00999606633000
01CCCD03366400
025999AA599800
03366555CCCD00
066336A9999600
099A6555667300
0CCC9AAA732640
2999C555669980
3366400018CCD0
663300000D9960
ENDCHAR
STARTCHAR Adieresis
ENCODING 196
SWIDTH 936 0
DWIDTH 26 0
BBX 26 28 0 0
BITMAP
00055502220000
00099902660000
00099902660000
00044401110000
00000000000000
00001548800000
00003CCC900000
0000699A600000
0000D663300000
00018736640000
00026A999C0000
000331CCC90000
00066599A60000
00099966330000
001CCC73664000
002599A5998000
0033265CCCD000
006633099A6000
00999606633000
01CCCD03366400
025999AA599800
03366555CCCD00
066336A9999600
099A6555667300
0CCC9AAA732640
2999C555669980
3366400018CCD0
663300000D9960
ENDCHAR
STARTCHAR Aring
ENCODING 197
SWIDTH 936 0
DWIDTH 26 0
BBX 26 31 0 0
BITMAP
000002A9000000
00000956000000
00001A59800000
00002609800000
00001609800000
000009A6400000
00000699000000
00000050000000
00001548800000
00003CCC900000
0000699A600000
0000D663300000
00018736640000
00026A999C0000
000331CCC90000
00066599A60000
00099966330000
001CCC73664000
002599A5998000
0033265CCCD000
006633099A6000
00999606633000
01CCCD03366400
025999AA599800
03366555CCCD00
066336A9999600
099A6555667300
0CCC9AAA732640
2999C555669980
3366400018CCD0
663300000D9960
ENDCHAR
STARTCHAR AE
ENCODING 198
SWIDTH 1198 0
DWIDTH 34 0
BBX 33 23 0 0
BITMAP
00001548AAAAAAAA40
00003CCDA555555540
000069967AAAAAAA40
000096733555555500
0001C7266AAAAAAA40
00026A999D55555500
000331CCC900000000
00066699A600000000
000999663300000000
001CCC7366EAAAA800
002599A599D5555000
0033665CCCEAAAA800
006633099A65555000
0099A606633FFFF800
01CCC9033664000000
02599DAA5998000000
03366555CCCC000000
066336A99999000000
099A65556677FFFF40
0CCC9AAA7326400000
2999C5556699FFFF40
3266400018CCC00000
673300000999BFFF40
ENDCHAR
STARTCHAR Ccedilla
ENCODING 199
SWIDTH 852 0
DWIDTH 24 0
BBX 23 34 0 -10
BITMAP
000005A90000
0001BA56E400
000B46A91A00
0078B956E1D0
00D786A91D74
025D7A56D75C
0A32D1A968D0
0C962E578A00
199CA000A100
266580001000
333300000000
377600000000
666600000000
266600000000
333300000000
336640000000
2698D0007000
1CCA7802D600
09628BFE1C90
0728B401A288
01CA5BFE4A24
0075E401B4A0
001E1BFE4740
0002E401B800
00001BFE4000
000006980000
000039580000
0000A2B80000
00009A500000
000099000000
00009A540000
000061A40000
00002A540000
000005A40000
ENDCHAR
STARTCHAR Egrave
ENCODING 200
SWIDTH 706 0
DWIDTH 20 0
BBX 18 32 1 0
BITMAP
0400000000
1B40000000
A5B4000000
1E5B400000
01E5B40000
001E540000
0001D00000
0000000000
0000000000
448AAAAA90
9999555550
999AAAAA90
9999555550
999AAAAA90
9999555550
9998000000
9998000000
9998000000
999AAA4000
9999550000
999BAA4000
9999550000
999BFF4000
9999000000
9998000000
9998000000
9998000000
999BFFFFE0
9999000000
999BFFFFE0
9999000000
999BFFFFE0
ENDCHAR
STARTCHAR Eacute
ENCODING 201
SWIDTH 706 0
DWIDTH 20 0
BBX 18 32 1 0
BITMAP
0000000100
0000001E00
000001E5A0
00001E5B40
0001E1B400
00011B4000
0000640000
0000000000
0000000000
448AAAAA90
9999555550
999AAAAA90
9999555550
999AAAAA90
9999555550
9998000000
9998000000
9998000000
999AAA4000
9999550000
999BAA4000
9999550000
999BFF4000
9999000000
9998000000
9998000000
9998000000
999BFFFFE0
9999000000
999BFFFFE0
9999000000
999BFFFFE0
ENDCHAR
STARTCHAR Ecircumflex
ENCODING 202
SWIDTH 706 0
DWIDTH 20 0
BBX 18 32 1 0
BITMAP
0002580000
0003CC0000
000A990000
000C660000
0019724000
0026698000
0023088000
0000000000
0000000000
448AAAAA90
9999555550
999AAAAA90
9999555550
999AAAAA90
9999555550
9998000000
9998000000
9998000000
999AAA4000
9999550000
999BAA4000
9999550000
999BFF4000
9999000000
9998000000
9998000000
9998000000
999BFFFFE0
9999000000
999BFFFFE0
9999000000
999BFFFFE0
ENDCHAR
STARTCHAR Edieresis
ENCODING 203
SWIDTH 706 0
DWIDTH 20 0
BBX 18 28 1 0
BITMAP
0998055500
0999066600
0999066600
0444011100
0000000000
448AAAAA90
9999555550
999AAAAA90
9999555550
999AAAAA90
9999555550
9998000000
9998000000
9998000000
999AAA4000
9999550000
999BAA4000
9999550000
999BFF4000
9999000000
9998000000
9998000000
9998000000
999BFFFFE0
9999000000
999BFFFFE0
9999000000
999BFFFFE0
ENDCHAR
STARTCHAR Igrave
ENCODING 204
SWIDTH 338 0
DWIDTH 9 0
BBX 12 32 -4 0
BITMAP
140000
1E4000
E1E400
2E1A40
02E1A4
002E14
0001C0
000000
000000
001122
002666
002666
002666
002666
002666
002666
002666
002666
002666
002666
002666
002666
002666
002666
002666
002666
002666
002666
002666
002666
002666
002666
ENDCHAR
STARTCHAR Iacute
ENCODING 205
SWIDTH 338 0
DWIDTH 9 0
BBX 13 32 1 0
BITMAP
00000400
0000B800
000B8640
00B87900
0B879000
04790000
02900000
00000000
00000000
44880000
99980000
99980000
99980000
99980000
99980000
99980000
99980000
99980000
99980000
99980000
99980000
99980000
99980000
99980000
99980000
99980000
99980000
99980000
99980000
99980000
99980000
99980000
ENDCHAR
STARTCHAR Icircumflex
ENCODING 206
SWIDTH 338 0
DWIDTH 9 0
BBX 9 32 0 0
BITMAP
025400
079800
09CD00
1C9600
257300
336640
661980
000000
000000
112200
266600
266600
266600
266600
266600
266600
266600
266600
266600
266600
266600
266600
266600
266600
266600
266600
266600
266600
266600
266600
266600
266600
ENDCHAR
STARTCHAR Idieresis
ENCODING 207
SWIDTH 338 0
DWIDTH 9 0
BBX 14 28 -2 0
BITMAP
88805550
CCC09990
CCC09990
44404440
00000000
01122000
02666000
02666000
02666000
02666000
02666000
02666000
02666000
02666000
02666000
02666000
02666000
02666000
02666000
02666000
02666000
02666000
02666000
02666000
02666000
02666000
02666000
02666000
ENDCHAR
STARTCHAR Eth
ENCODING 208
SWIDTH 905 0
DWIDTH 25 0
BBX 25 23 0 0
BITMAP
0AAAAAAA400000
1D555555B80000
19AAAAAA4B4000
19955555B5D000
199AAAAA5D7000
19995555E35800
1999AAA929CD00
199995568DA600
19954000A67300
6AAAA800333240
15555400266640
6AAAA800266640
15555400266640
7FFFFC00332640
15554000673300
19998001D96600
1999FFFF5CD900
19980000B29C00
199FFFFF8A3400
1980000078A000
19FFFFFF968000
180000006D0000
1FFFFFFF900000
ENDCHAR
STARTCHAR Ntilde
ENCODING 209
SWIDTH 877 0
DWIDTH 25 0
BBX 23 30 1 0
BITMAP
001AAAA45500
00E555549600
028AAAAAC900
032955551C00
0330AAAAE400
011055550000
000000000000
522140015550
B658C0026664
A8C960026664
996734026664
97369C026664
969CDA026664
99DA63026664
996325826664
99658C926664
999C96726664
9996736A6664
999769CD6664
9999CDA62664
9998A6326664
99983258D664
999818C9A264
999809673664
999807369D64
9998029CD924
999800DA6324
9998006325A4
999800258CB4
9998000C9A74
ENDCHAR
STARTCHAR Ograve
ENCODING 210
SWIDTH 933 0
DWIDTH 26 0
BBX 26 33 0 -1
BITMAP
00040000000000
000B4000000000
00A5B400000000
001E5B40000000
0001E4B4000000
00001E44000000
00000190000000
00000000000000
000005A5000000
0001BA5AE40000
000B46A91A0000
0078B956E1D000
00D786A91D7400
025D7A56D35C00
0A32D1A968D600
0C962E578A7340
199CA000A36980
26658000299CC0
333300000CCCC0
37760000099990
66660000099990
26660000099990
333300000C9990
3366400019CCC0
2698D000765980
1CCA7801D63640
09628BFE1CA600
0728B401A28D00
01CA5BFE4A2400
0075E401B4A000
001E1BFE474000
0002E401B80000
00001BFE400000
ENDCHAR
STARTCHAR Oacute
ENCODING 211
SWIDTH 933 0
DWIDTH 26 0
BBX 26 33 0 -1
BITMAP
00000000010000
000000001E4000
00000001E4A000
0000001E5B4000
000001E5B40000
0000015B400000
00000074000000
00000000000000
000005A5000000
0001BA5AE40000
000B46A91A0000
0078B956E1D000
00D786A91D7400
025D7A56D35C00
0A32D1A968D600
0C962E578A7340
199CA000A36980
26658000299CC0
333300000CCCC0
37760000099990
66660000099990
26660000099990
333300000C9990
3366400019CCC0
2698D000765980
1CCA7801D63640
09628BFE1CA600
0728B401A28D00
01CA5BFE4A2400
0075E401B4A000
001E1BFE474000
0002E401B80000
00001BFE400000
ENDCHAR
STARTCHAR Ocircumflex
ENCODING 212
SWIDTH 933 0
DWIDTH 26 0
BBX 26 33 0 -1
BITMAP
00000298000000
000003CC000000
00000696000000
00000973000000
00001C66400000
00002699800000
0000224C800000
00000000000000
000005A5000000
0001BA5AE40000
000B46A91A0000
0078B956E1D000
00D786A91D7400
025D7A56D35C00
0A32D1A968D600
0C962E578A7340
199CA000A36980
26658000299CC0
333300000CCCC0
37760000099990
66660000099990
26660000099990
333300000C9990
3366400019CCC0
2698D000765980
1CCA7801D63640
09628BFE1CA600
0728B401A28D00
01CA5BFE4A2400
0075E401B4A000
001E1BFE474000
0002E401B80000
00001BFE400000
ENDCHAR
STARTCHAR Otilde
ENCODING 213
SWIDTH 933 0
DWIDTH 26 0
BBX 26 31 0 -1
BITMAP
0001AAAA455000
001E5555099000
0024AAAAA8C000
00335555528000
00661AAAAE0000
00110555500000
000005A5000000
0001BA5AE40000
000B46A91A0000
0078B956E1D000
00D786A91D7400
025D7A56D35C00
0A32D1A968D600
0C962E578A7340
199CA000A36980
26658000299CC0
333300000CCCC0
37760000099990
66660000099990
26660000099990
333300000C9990
3366400019CCC0
2698D000765980
1CCA7801D63640
09628BFE1CA600
0728B401A28D00
01CA5BFE4A2400
0075E401B4A000
001E1BFE474000
0002E401B80000
00001BFE400000
ENDCHAR
STARTCHAR Odieresis
ENCODING 214
SWIDTH 933 0
DWIDTH 26 0
BBX 26 29 0 -1
BITMAP
00055502660000
00099906660000
00099906660000
00044401110000
000005A5000000
0001BA5AE40000
000B46A91A0000
0078B956E1D000
00D786A91D7400
025D7A56D35C00
0A32D1A968D600
0C962E578A7340
199CA000A36980
26658000299CC0
333300000CCCC0
37760000099990
66660000099990
26660000099990
333300000C9990
3366400019CCC0
2698D000765980
1CCA7801D63640
09628BFE1CA600
0728B401A28D00
01CA5BFE4A2400
0075E401B4A000
001E1BFE474000
0002E401B80000
00001BFE400000
ENDCHAR
STARTCHAR multiply
ENCODING 215
SWIDTH 790 0
DWIDTH 22 0
BBX 22 20 0 0
BITMAP
625890215890
25C960A72580
0CA725CD6340
06369768CA00
0258DA725C00
01C95C963400
00A3358DA000
0035A369C000
001DCA724000
00065CD60000
0006368D0000
000DA7264000
0029C9618000
007358DC9000
00DA329A3000
029C97635800
07258D25C900
0D63698CA700
28CA70D63680
725CD07258D0
ENDCHAR
STARTCHAR Oslash
ENCODING 216
SWIDTH 938 0
DWIDTH 26 0
BBX 26 32 0 -5
BITMAP
00000000040000
00000000184000
00000000365400
000005A5173000
0001BA5AE56000
000B46A91A4000
0074B956E1D000
00D786A91D7400
035D7A56D35C00
0A32D1A968D600
0CD62E578A7300
199CA000A36580
26658000299CC0
333300000CCCC0
36660000099990
66660000099990
66660000099990
333300000C9990
3366400019CCC0
2698D000765980
1CCA7802D63640
09628BFE1CA600
0728B401A28D00
01CA5BFE4A2400
0075E401B4A000
001E1BFE474000
0062E401B80000
00D95BFE400000
019CC000000000
01658000000000
00130000000000
00010000000000
ENDCHAR
STARTCHAR Ugrave
ENCODING 217
SWIDTH 905 0
DWIDTH 25 0
BBX 23 33 1 -1
BITMAP
005000000000
007900000000
074790000000
00B879000000
000B87900000
0000B8500000
00000B000000
000000000000
000000000000
888800008888
CCCC000099CC
CCCC000099CC
CCCC000099CC
CCCC000099CC
CCCC000099CC
CCCC000099CC
CCCC000099CC
CCCC000099CC
CCCC000099CC
CCCC000099CC
CCCC000099CC
CCCC000099CC
9CCC0000CCCC
99990000CCCC
966700025998
6335D01A3268
369D6FE5D630
1C97901B5DA0
0A286FE475C0
028B90178700
00B46FE96800
001B9016D000
0001AFE90000
ENDCHAR
STARTCHAR Uacute
ENCODING 218
SWIDTH 905 0
DWIDTH 25 0
BBX 23 33 1 -1
BITMAP
000000000400
00000000B800
0000000B8740
000000B47900
00000B479000
000014790000
000002900000
000000000000
000000000000
888800008888
CCCC000099CC
CCCC000099CC
CCCC000099CC
CCCC000099CC
CCCC000099CC
CCCC000099CC
CCCC000099CC
CCCC000099CC
CCCC000099CC
CCCC000099CC
CCCC000099CC
CCCC000099CC
9CCC0000CCCC
99990000CCCC
966700025998
6335D01A3268
369D6FE5D630
1C97901B5DA0
0A286FE475C0
028B90178700
00B46FE96800
001B9016D000
0001AFE90000
ENDCHAR
STARTCHAR Ucircumflex
ENCODING 219
SWIDTH 905 0
DWIDTH 25 0
BBX 23 33 1 -1
BITMAP
000009900000
00001E600000
000037300000
000062640000
0000958C0000
0000CCD90000
000198560000
000000000000
000000000000
888800008888
CCCC000099CC
CCCC000099CC
CCCC000099CC
CCCC000099CC
CCCC000099CC
CCCC000099CC
CCCC000099CC
CCCC000099CC
CCCC000099CC
CCCC000099CC
CCCC000099CC
CCCC000099CC
9CCC0000CCCC
99990000CCCC
966700025998
6335D01A3268
369D6FE5D630
1C97901B5DA0
0A286FE475C0
028B90178700
00B46FE96800
001B9016D000
0001AFE90000
ENDCHAR
STARTCHAR Udieresis
ENCODING 220
SWIDTH 905 0
DWIDTH 25 0
BBX 23 29 1 -1
BITMAP
002220166400
003330266400
003330266400
001110111000
000000000000
888800008888
CCCC000099CC
CCCC000099CC
CCCC000099CC
CCCC000099CC
CCCC000099CC
CCCC000099CC
CCCC000099CC
CCCC000099CC
CCCC000099CC
CCCC000099CC
CCCC000099CC
CCCC000099CC
9CCC0000CCCC
99990000CCCC
966700025998
6335D01A3268
369D6FE5D630
1C97901B5DA0
0A286FE475C0
028B90178700
00B46FE96800
001B9016D000
0001AFE90000
ENDCHAR
STARTCHAR Yacute
ENCODING 221
SWIDTH 789 0
DWIDTH 22 0
BBX 22 32 0 0
BITMAP
000000001000
00000001E400
0000001E5A00
000001E5B400
00001E5B4000
000015B40000
000007400000
000000000000
000000000000
555500055550
33330009CCC0
266640199980
0CCCC0266700
099990666600
033330999900
026665999800
00CCCA666400
009996666000
006669999000
00265CC98000
0019A6664000
000973330000
000699990000
0002CCCC0000
000199980000
000199980000
000199980000
000199980000
000199980000
000199980000
000199980000
000199980000
ENDCHAR
STARTCHAR Thorn
ENCODING 222
SWIDTH 798 0
DWIDTH 22 0
BBX 21 26 1 -2
BITMAP
444800000000
999900000000
999900000000
999BFFE40000
9999001A4000
999BFFE1D000
9999002D7400
999BEBD25C00
99995468D900
999BEB8A6700
999900A33300
999900266640
999900266640
999900266640
999900732640
9999AAD67300
9999552C9600
9999AAE28C00
9999551A3400
9999AAF4E000
9999550B4000
9999AAB80000
999955000000
999900000000
999900000000
999800000000
ENDCHAR
STARTCHAR germandbls
ENCODING 223
SWIDTH 826 0
DWIDTH 23 0
BBX 22 26 1 -2
BITMAP
0006AAA40000
00B9555B8000
0786AAA4B400
0D79555B5C00
25D6AAA5DA00
632D555D7340
9A62AA936680
999A55699980
8CCC00199980
8CCDAAB59980
8CCD55576640
8CCDAAAD6600
8CCD555A2640
8CCDAAA69980
8CCC555CDCC0
8CCC00099990
8CCC000D9990
8CCDFFF9CCC0
8CCC00076980
8CCDFFF96340
8CCC00068A00
8CCDFFF92800
8CCC0006E000
8CCDFFFA0000
8CCC00000000
8CCC00000000
ENDCHAR
STARTCHAR agrave
ENCODING 224
SWIDTH 832 0
DWIDTH 23 0
BBX 22 30 0 -1
BITMAP
004000000000
00B800000000
064B80000000
01B4B8000000
001B4B800000
0001B4400000
00001A000000
000000000000
000005000000
0002FAB90000
002D0546E000
00A1BAB92800
028A45468A00
0A35BAB87280
0CD7454758C0
259C7AB5C990
3265801D6660
333300073330
666600033330
666600026670
376700026670
333240026670
2659E4566670
18CA1BA26670
0962E5666670
035D1A926670
01D6E5666670
00291A926670
0006E5666670
000016500000
ENDCHAR
STARTCHAR aacute
ENCODING 225
SWIDTH 832 0
DWIDTH 23 0
BBX 22 30 0 -1
BITMAP
000000001400
00000001B400
0000001B4B00
000001A4B800
00001A4B8000
000014B80000
000003800000
000000000000
000005000000
0002FAB90000
002D0546E000
00A1BAB92800
028A45468A00
0A35BAB87280
0CD7454758C0
259C7AB5C990
3265801D6660
333300073330
666600033330
666600026670
376700026670
333240026670
2659E4566670
18CA1BA26670
0962E5666670
035D1A926670
01D6E5666670
00291A926670
0006E5666670
000016500000
ENDCHAR
STARTCHAR acircumflex
ENCODING 226
SWIDTH 832 0
DWIDTH 23 0
BBX 22 30 0 -1
BITMAP
000018800000
00002D900000
000076600000
000093340000
0000CA580000
000199CC0000
000264990000
000000000000
000005000000
0002FAB90000
002D0546E000
00A1BAB92800
028A45468A00
0A35BAB87280
0CD7454758C0
259C7AB5C990
3265801D6660
333300073330
666600033330
666600026670
376700026670
333240026670
2659E4566670
18CA1BA26670
0962E5666670
035D1A926670
01D6E5666670
00291A926670
0006E5666670
000016500000
ENDCHAR
STARTCHAR atilde
ENCODING 227
SWIDTH 832 0
DWIDTH 23 0
BBX 22 28 0 -1
BITMAP
001AAAA45500
00E55554A600
028AAAAAC900
032955551C00
0330AAAAE400
011055550000
000005000000
0002FAB90000
002D0546E000
00A1BAB92800
028A45468A00
0A35BAB87280
0CD7454758C0
259C7AB5C990
3265801D6660
333300073330
666600033330
666600026670
376700026670
333240026670
2659E4566670
18CA1BA26670
0962E5666670
035D1A926670
01D6E5666670
00291A926670
0006E5666670
000016500000
ENDCHAR
STARTCHAR adieresis
ENCODING 228
SWIDTH 832 0
DWIDTH 23 0
BBX 22 26 0 -1
BITMAP
005550222000
006660333000
006660333000
001110111000
000005000000
0002FAB90000
002D0546E000
00A1BAB92800
028A45468A00
0A35BAB87280
0CD7454758C0
259C7AB5C990
3265801D6660
333300073330
666600033330
666600026670
376700026670
333240026670
2659E4566670
18CA1BA26670
0962E5666670
035D1A926670
01D6E5666670
00291A926670
0006E5666670
000016500000
ENDCHAR
STARTCHAR aring
ENCODING 229
SWIDTH 832 0
DWIDTH 23 0
BBX 22 30 0 -1
BITMAP
00001A900000
0000A5640000
0000999C0000
0001A0680000
0000A4580000
00009A980000
000029A00000
000005400000
000005000000
0002FAB90000
002D0546E000
00A1BAB92800
028A45468A00
0A35BAB87280
0CD7454758C0
259C7AB5C990
3265801D6660
333300073330
666600033330
666600026670
376700026670
333240026670
2659E4566670
18CA1BA26670
0962E5666670
035D1A926670
01D6E5666670
00291A926670
0006E5666670
000016500000
ENDCHAR
STARTCHAR ae
ENCODING 230
SWIDTH 1166 0
DWIDTH 33 0
BBX 32 22 0 -1
BITMAP
0000054000000000
0002FAB9222AAAA9
002D0546D2655554
00A1BAB92A6AAAA9
028A45468A255554
0A35BAB872AAAAA9
0CD7454758F55554
259C7AB5C9B00000
3265801D66755554
33330007333AAAA8
6666000333355554
66660002667AAAA8
3767000266755554
33324002667AAAA8
2659E45666700000
18CA1BA266700000
0962E566667FFFFE
035D1A9266740000
01D6E566667FFFFE
00291A9266740000
0006E566667FFFFE
0000165000000000
ENDCHAR
STARTCHAR ccedilla
ENCODING 231
SWIDTH 736 0
DWIDTH 21 0
BBX 20 31 0 -10
BITMAP
00001A9400
0007E56B40
00291A91A4
00D2E56E5D
035D1A91D6
0A75E56D34
0CD71A9280
259CA56840
3266800400
3333000000
6666000000
6666000000
3333000000
3336400000
2658E01C00
18CA2FE180
0962901A24
07286FE4A1
01D7901B4D
00746FE474
000B901780
00006FF900
00005CC000
0001D4C000
00031AC000
0006754000
0006600000
0006394000
0003568000
0001E94000
0000168000
ENDCHAR
STARTCHAR egrave
ENCODING 232
SWIDTH 666 0
DWIDTH 19 0
BBX 18 29 0 0
BITMAP
0400000000
0B80000000
7478000000
1B47800000
01B4790000
001B450000
0000A00000
0000000000
0000000000
2622AAAA90
2666555550
2666AAAA90
2666555540
2666AAAA90
2666555540
2666000000
2666555540
2666AAAA80
2666555540
2666AAAA80
2666555540
2666AAAA80
2666000000
2666000000
2666FFFFE0
2666400000
2666FFFFE0
2666400000
2666FFFFE0
ENDCHAR
STARTCHAR eacute
ENCODING 233
SWIDTH 666 0
DWIDTH 19 0
BBX 18 29 1 0
BITMAP
0000000500
0000006D00
000006D1D0
00006D1E00
0006D2E000
00052E0000
0000E00000
0000000000
0000000000
988AAAAA40
9999555540
999AAAAA40
9999555500
999AAAAA40
9999555500
9998000000
9999555500
999AAAAA00
9999555500
999AAAAA00
9999555500
999AAAAA00
9998000000
9998000000
999BFFFF80
9999000000
999BFFFF80
9999000000
999BFFFF80
ENDCHAR
STARTCHAR ecircumflex
ENCODING 234
SWIDTH 666 0
DWIDTH 19 0
BBX 17 29 1 0
BITMAP
0006200000
000B680000
000D8C0000
0018D90000
0036660000
0063330000
0095264000
0000000000
0000000000
988AAAAA40
9999555540
999AAAAA40
9999555500
999AAAAA40
9999555500
9998000000
9999555500
999AAAAA00
9999555500
999AAAAA00
9999555500
999AAAAA00
9998000000
9998000000
999BFFFF80
9999000000
999BFFFF80
9999000000
999BFFFF80
ENDCHAR
STARTCHAR edieresis
ENCODING 235
SWIDTH 666 0
DWIDTH 19 0
BBX 17 25 1 0
BITMAP
1994088800
19980CCC00
19980CCC00
0444044400
0000000000
988AAAAA40
9999555540
999AAAAA40
9999555500
999AAAAA40
9999555500
9998000000
9999555500
999AAAAA00
9999555500
999AAAAA00
9999555500
999AAAAA00
9998000000
9998000000
999BFFFF80
9999000000
999BFFFF80
9999000000
999BFFFF80
ENDCHAR
STARTCHAR igrave
ENCODING 236
SWIDTH 337 0
DWIDTH 9 0
BBX 12 29 -4 0
BITMAP
140000
1E4000
E1E400
2E1A40
02E1A4
002E14
0001C0
000000
000000
002622
002666
002666
002666
002666
002666
002666
002666
002666
002666
002666
002666
002666
002666
002666
002666
002666
002666
002666
002666
ENDCHAR
STARTCHAR iacute
ENCODING 237
SWIDTH 337 0
DWIDTH 9 0
BBX 13 29 1 0
BITMAP
00000400
0000B800
000B8640
00B87900
0B879000
04790000
02900000
00000000
00000000
98880000
99980000
99980000
99980000
99980000
99980000
99980000
99980000
99980000
99980000
99980000
99980000
99980000
99980000
99980000
99980000
99980000
99980000
99980000
99980000
ENDCHAR
STARTCHAR icircumflex
ENCODING 238
SWIDTH 337 0
DWIDTH 9 0
BBX 9 29 0 0
BITMAP
025400
079800
09CD00
1C9600
257300
336640
661980
000000
000000
262200
266600
266600
266600
266600
266600
266600
266600
266600
266600
266600
266600
266600
266600
266600
266600
266600
266600
266600
266600
ENDCHAR
STARTCHAR idieresis
ENCODING 239
SWIDTH 337 0
DWIDTH 9 0
BBX 14 25 -2 0
BITMAP
88805550
CCC09990
CCC09990
44404440
00000000
02622000
02666000
02666000
02666000
02666000
02666000
02666000
02666000
02666000
02666000
02666000
02666000
02666000
02666000
02666000
02666000
02666000
02666000
02666000
02666000
ENDCHAR
STARTCHAR eth
ENCODING 240
SWIDTH 783 0
DWIDTH 22 0
BBX 21 25 0 -1
BITMAP
00016A500000
006E95AE0000
02D16A52D000
0A2E95AD3400
00E1AA468D00
001E55B8A600
0005AA4A3240
000255B26580
000000199980
0000100CCD80
001BAADCCCC0
01E4550CCCC0
075BAADCCCC0
1CA4554CCCC0
268BAA9CCCC0
33356A4CCCC0
666755589980
666600659980
3331FF936640
365E006D6300
18D2FFA1CA00
0A29005E2800
0286FFA5A000
0079005B4000
0006BFA40000
ENDCHAR
STARTCHAR ntilde
ENCODING 241
SWIDTH 787 0
DWIDTH 22 0
BBX 20 27 1 0
BITMAP
006AAA9154
0795554264
0D6AAAAE30
18D55554A0
1986AAAB80
0001555400
0000000000
9225400226
B258C00666
A9C9A00666
9DA7340666
9736580666
9658C90666
99C9A70666
99A7368666
997658C666
9998C96666
9999A73666
9997369966
999258C966
9990C96766
9990A736A6
99903698D6
999018C966
999009673A
999007369E
99900298DA
ENDCHAR
STARTCHAR ograve
ENCODING 242
SWIDTH 833 0
DWIDTH 23 0
BBX 23 30 0 -1
BITMAP
005000000000
007900000000
074790000000
00B479000000
000B87900000
0000B8500000
00000B000000
000000000000
00001A940000
0007E56B4000
00291A90B000
00D2E56E5D00
035D1A91D700
0A75E56D3580
0CD71A928C90
259CA5689660
3266800A7330
333300036664
666600026664
666600026664
333300026664
333640073330
2658E01DA660
18CA2FE18D90
0962901A29C0
07286FE4A340
01D7901B4900
00746FE47400
000B90179000
00006FE90000
ENDCHAR
STARTCHAR oacute
ENCODING 243
SWIDTH 833 0
DWIDTH 23 0
BBX 23 30 0 -1
BITMAP
000000000400
00000000B800
0000000B4740
000000B47900
00001B479000
000014790000
000002800000
000000000000
00001A940000
0007E56B4000
00291A90B000
00D2E56E5D00
035D1A91D700
0A75E56D3580
0CD71A928C90
259CA5689660
3266800A7330
333300036664
666600026664
666600026664
333300026664
333640073330
2658E01DA660
18CA2FE18D90
0962901A29C0
07286FE4A340
01D7901B4900
00746FE47400
000B90179000
00006FE90000
ENDCHAR
STARTCHAR ocircumflex
ENCODING 244
SWIDTH 833 0
DWIDTH 23 0
BBX 23 30 0 -1
BITMAP
000008900000
00002E600000
000037300000
000062640000
0000999C0000
0000CCC90000
000198560000
000000000000
00001A940000
0007E56B4000
00291A90B000
00D2E56E5D00
035D1A91D700
0A75E56D3580
0CD71A928C90
259CA5689660
3266800A7330
333300036664
666600026664
666600026664
333300026664
333640073330
2658E01DA660
18CA2FE18D90
0962901A29C0
07286FE4A340
01D7901B4900
00746FE47400
000B90179000
00006FE90000
ENDCHAR
STARTCHAR otilde
ENCODING 245
SWIDTH 833 0
DWIDTH 23 0
BBX 23 28 0 -1
BITMAP
001AAAA82200
00A555546300
0186AAAAD600
025955550D00
0264AAAAB400
011055554000
00001A940000
0007E56B4000
00291A90B000
00D2E56E5D00
035D1A91D700
0A75E56D3580
0CD71A928C90
259CA5689660
3266800A7330
333300036664
666600026664
666600026664
333300026664
333640073330
2658E01DA660
18CA2FE18D90
0962901A29C0
07286FE4A340
01D7901B4900
00746FE47400
000B90179000
00006FE90000
ENDCHAR
STARTCHAR odieresis
ENCODING 246
SWIDTH 833 0
DWIDTH 23 0
BBX 23 26 0 -1
BITMAP
002220266400
003330266400
003330266400
001110111000
00001A940000
0007E56B4000
00291A90B000
00D2E56E5D00
035D1A91D700
0A75E56D3580
0CD71A928C90
259CA5689660
3266800A7330
333300036664
666600026664
666600026664
333300026664
333640073330
2658E01DA660
18CA2FE18D90
0962901A29C0
07286FE4A340
01D7901B4900
00746FE47400
000B90179000
00006FE90000
ENDCHAR
STARTCHAR divide
ENCODING 247
SWIDTH 260 0
DWIDTH 7 0
BBX 9 17 -1 1
BITMAP
044400
099C00
099C00
099C00
099C00
044400
000000
BFFFC0
000000
BFFFC0
000000
000400
099C00
099C00
099C00
099C00
088800
ENDCHAR
STARTCHAR oslash
ENCODING 248
SWIDTH 832 0
DWIDTH 23 0
BBX 23 26 0 -3
BITMAP
000000004000
000000029400
00005A962500
0007E56B5700
00291A91B500
00D2E56E5D00
035D1A91D700
0A75E56D3580
1CD71A929C90
259CA5689A60
3366800A7330
333300036664
666600026664
666600026664
326300026664
333240073330
2658E01DA660
18CA2FE18D90
0962901A29C0
07286FE4A340
01D7901B4900
00746FE47400
025B901B9000
0231AFE90000
006700000000
000500000000
ENDCHAR
STARTCHAR ugrave
ENCODING 249
SWIDTH 795 0
DWIDTH 22 0
BBX 20 30 1 -1
BITMAP
0100000000
02D0000000
296D000000
0792D00000
00792D0000
0006910000
0000640000
0000000000
0000000000
8888002222
CCCC002733
CCCC002733
CCCC002733
CCCC002733
CCCC002733
CCCC002733
CCCC002733
CCCC002733
CCCC002733
CCCC002733
CCCC003333
9999007333
9A6741D666
6735BE5C99
268E40B58C
1CA1BF8B24
062E4078A0
02D6FF9280
0069006D00
0006BF9000
ENDCHAR
STARTCHAR uacute
ENCODING 250
SWIDTH 795 0
DWIDTH 22 0
BBX 20 30 1 -1
BITMAP
0000000040
0000000690
0000007928
00000796D0
0000796D00
000056D000
00001D0000
0000000000
0000000000
8888002222
CCCC002733
CCCC002733
CCCC002733
CCCC002733
CCCC002733
CCCC002733
CCCC002733
CCCC002733
CCCC002733
CCCC002733
CCCC003333
9999007333
9A6741D666
6735BE5C99
268E40B58C
1CA1BF8B24
062E4078A0
02D6FF9280
0069006D00
0006BF9000
ENDCHAR
STARTCHAR ucircumflex
ENCODING 251
SWIDTH 795 0
DWIDTH 22 0
BBX 20 30 1 -1
BITMAP
0000A20000
0000F34000
0001A58000
00025CC000
0007199000
0009666000
0008932000
0000000000
0000000000
8888002222
CCCC002733
CCCC002733
CCCC002733
CCCC002733
CCCC002733
CCCC002733
CCCC002733
CCCC002733
CCCC002733
CCCC002733
CCCC003333
9999007333
9A6741D666
6735BE5C99
268E40B58C
1CA1BF8B24
062E4078A0
02D6FF9280
0069006D00
0006BF9000
ENDCHAR
STARTCHAR udieresis
ENCODING 252
SWIDTH 795 0
DWIDTH 22 0
BBX 20 26 1 -1
BITMAP
0155408980
0266419980
0266419980
0111004440
0000000000
8888002222
CCCC002733
CCCC002733
CCCC002733
CCCC002733
CCCC002733
CCCC002733
CCCC002733
CCCC002733
CCCC002733
CCCC002733
CCCC003333
9999007333
9A6741D666
6735BE5C99
268E40B58C
1CA1BF8B24
062E4078A0
02D6FF9280
0069006D00
0006BF9000
ENDCHAR
STARTCHAR yacute
ENCODING 253
SWIDTH 733 0
DWIDTH 21 0
BBX 20 29 0 0
BITMAP
0000000050
00000006D0
000000692C
00000692E0
0000692E00
000052E000
00001D0000
0000000000
0000000000
5555002222
3333006666
19998099CC
0CCC919998
0666626660
0332666660
0199899990
00C9999980
0066266640
0032766600
0019999900
000DCC9800
0007666400
0003333000
0003333000
0003333000
0003333000
0003333000
0003333000
0003333000
ENDCHAR
STARTCHAR thorn
ENCODING 254
SWIDTH 833 0
DWIDTH 23 0
BBX 22 26 1 -3
BITMAP
548800000000
999900000000
999900000000
999900000000
999900000000
999900000000
9998AAA94000
99985556E000
9998AAA92D00
99985556D700
9998AAA97680
999855579CC0
9998AAA8C990
999855599990
999855599990
9998AAA5CD90
9998555B59C0
9998AAA87240
999855568A00
9998AAA92800
99985556E000
9998AAA90000
999900000000
999900000000
999900000000
999800000000
ENDCHAR
STARTCHAR ydieresis
ENCODING 255
SWIDTH 733 0
DWIDTH 21 0
BBX 20 25 0 0
BITMAP
0155408880
019980CCC0
019980CCC0
0044404440
0000000000
5555002222
3333006666
19998099CC
0CCC919998
0666626660
0332666660
0199899990
00C9999980
0066266640
0032766600
0019999900
000DCC9800
0007666400
0003333000
0003333000
0003333000
0003333000
0003333000
0003333000
0003333000
ENDCHAR
STARTCHAR Amacron
ENCODING 256
SWIDTH 936 0
DWIDTH 26 0
BBX 26 23 0 0
BITMAP
00001548800000
00003CCC900000
0000699A600000
0000D663300000
00018736640000
00026A999C0000
000331CCC90000
00066599A60000
00099966330000
001CCC73664000
002599A5998000
0033265CCCD000
006633099A6000
00999606633000
01CCCD03366400
025999AA599800
03366555CCCD00
066336A9999600
099A6555667300
0CCC9AAA732640
2999C555669980
3366400018CCD0
663300000D9960
ENDCHAR
STARTCHAR amacron
ENCODING 257
SWIDTH 832 0
DWIDTH 23 0
BBX 22 22 0 -1
BITMAP
000005000000
0002FAB90000
002D0546E000
00A1BAB92800
028A45468A00
0A35BAB87280
0CD7454758C0
259C7AB5C990
3265801D6660
333300073330
666600033330
666600026670
376700026670
333240026670
2659E4566670
18CA1BA26670
0962E5666670
035D1A926670
01D6E5666670
00291A926670
0006E5666670
000016500000
ENDCHAR
STARTCHAR Abreve
ENCODING 258
SWIDTH 936 0
DWIDTH 26 0
BBX 26 29 0 0
BITMAP
00001001400000
00003659800000
00001966800000
000006A9000000
00000000000000
00000000000000
00001548800000
00003CCC900000
0000699A600000
0000D663300000
00018736640000
00026A999C0000
000331CCC90000
00066599A60000
00099966330000
001CCC73664000
002599A5998000
0033265CCCD000
006633099A6000
00999606633000
01CCCD03366400
025999AA599800
03366555CCCD00
066336A9999600
099A6555667300
0CCC9AAA732640
2999C555669980
3366400018CCD0
663300000D9960
ENDCHAR
STARTCHAR abreve
ENCODING 259
SWIDTH 832 0
DWIDTH 23 0
BBX 22 27 0 -1
BITMAP
000110100000
000265A90000
000196580000
00002A900000
000000000000
000005000000
0002FAB90000
002D0546E000
00A1BAB92800
028A45468A00
0A35BAB87280
0CD7454758C0
259C7AB5C990
3265801D6660
333300073330
666600033330
666600026670
376700026670
333240026670
2659E4566670
18CA1BA26670
0962E5666670
035D1A926670
01D6E5666670
00291A926670
0006E5666670
000016500000
ENDCHAR
STARTCHAR Aogonek
ENCODING 260
SWIDTH 937 0
DWIDTH 26 0
BBX 25 32 1 -9
BITMAP
00006222000000
0000F366400000
0001A999C00000
00024CCC900000
0003199A600000
00066663300000
000D9336640000
0018CA59980000
002699CCCD0000
00332599A60000
00667266330000
00999633664000
01CCCD25998000
0259981CCCD000
03366409996000
066336A6673000
09996557326400
1CCCDAAA699800
259985558CCD00
33666AA9D99600
66331555667300
99A60000332640
CCC90000269980
00002B00000000
0000E400000000
00018B40000000
00026800000000
00026400000000
00026640000000
00026640000000
00026640000000
00026600000000
ENDCHAR
STARTCHAR aogonek
ENCODING 261
SWIDTH 832 0
DWIDTH 23 0
BBX 22 30 0 -9
BITMAP
000005000000
0002FAB90000
002D0546E000
00A1BAB92800
028A45468A00
0A35BAB87280
0CD7454758C0
259C7AB5C990
3265801D6660
333300073330
666600033330
666600026670
376700026670
333240026670
2659E4566670
18CA1BA26670
0962E5666670
035D1A926670
01D6E5666670
00291A926670
0006E5666670
0000BF500000
000290000000
00062D000000
000660000000
000990000000
000999000000
000999000000
000999000000
000559000000
ENDCHAR
STARTCHAR Cacute
ENCODING 262
SWIDTH 852 0
DWIDTH 24 0
BBX 23 33 0 -1
BITMAP
000000000100
000000001E40
00000001E4A0
0000001E5B40
000001E5B400
0000015B4000
000000740000
000000000000
000005A90000
0001BA56E400
000B46A91A00
0078B956E1D0
00D786A91D74
025D7A56D75C
0A32D1A968D0
0C962E578A00
199CA000A100
266580001000
333300000000
377600000000
666600000000
266600000000
333300000000
336640000000
2698D0007000
1CCA7802D600
09628BFE1C90
0728B401A288
01CA5BFE4A24
0075E401B4A0
001E1BFE4740
0002E401B800
00001AFE4000
ENDCHAR
STARTCHAR cacute
ENCODING 263
SWIDTH 736 0
DWIDTH 21 0
BBX 21 30 0 -1
BITMAP
000000000400
00000000B800
0000000B4740
000000B47900
00001B479000
000014790000
000002800000
000000000000
00001A940000
0007E56B4000
00291A91A400
00D2E56E5D00
035D1A91D600
0A75E56D3400
0CD71A928000
259CA5684000
326680040000
333300000000
666600000000
666600000000
333300000000
333640000000
2658E01C0000
18CA2FE18000
0962901A2400
07286FE4A100
01D7901B4D00
00746FE47400
000B90178000
00006FE90000
ENDCHAR
STARTCHAR Cdotaccent
ENCODING 266
SWIDTH 852 0
DWIDTH 24 0
BBX 23 31 0 -1
BITMAP
000006A90000
000001550000
000006A90000
000001540000
000006A90000
000001540000
000005A90000
0001BA56E400
000B46A91A00
0078B956E1D0
00D786A91D74
025D7A56D75C
0A32D1A968D0
0C962E578A00
199CA000A100
266580001000
333300000000
377600000000
666600000000
266600000000
333300000000
336640000000
2698D0007000
1CCA7802D600
09628BFE1C90
0728B401A288
01CA5BFE4A24
0075E401B4A0
001E1BFE4740
0002E401B800
00001AFE4000
ENDCHAR
STARTCHAR cdotaccent
ENCODING 267
SWIDTH 736 0
DWIDTH 21 0
BBX 20 28 0 -1
BITMAP
00002AA000
0000155000
00002AA000
0000155000
00002AA000
0000155000
00001A9400
0007E56B40
00291A91A4
00D2E56E5D
035D1A91D6
0A75E56D34
0CD71A9280
259CA56840
3266800400
3333000000
6666000000
6666000000
3333000000
3336400000
2658E01C00
18CA2FE180
0962901A24
07286FE4A1
01D7901B4D
00746FE474
000B901780
00006FE900
ENDCHAR
STARTCHAR Ccaron
ENCODING 268
SWIDTH 852 0
DWIDTH 24 0
BBX 23 33 0 -1
BITMAP
000022088000
000026598000
000019664000
00000D730000
000006A60000
000003C90000
000002980000
000000000000
000005A90000
0001BA56E400
000B46A91A00
0078B956E1D0
00D786A91D74
025D7A56D75C
0A32D1A968D0
0C962E578A00
199CA000A100
266580001000
333300000000
377600000000
666600000000
266600000000
333300000000
336640000000
2698D0007000
1CCA7802D600
09628BFE1C90
0728B401A288
01CA5BFE4A24
0075E401B4A0
001E1BFE4740
0002E401B800
00001AFE4000
ENDCHAR
STARTCHAR ccaron
ENCODING 269
SWIDTH 736 0
DWIDTH 21 0
BBX 20 30 0 -1
BITMAP
0001545500
0000CCD900
0000998C00
0000626800
0000333000
00002E6000
00001D9000
0000000000
00001A9400
0007E56B40
00291A91A4
00D2E56E5D
035D1A91D6
0A75E56D34
0CD71A9280
259CA56840
3266800400
3333000000
6666000000
6666000000
3333000000
3336400000
2658E01C00
18CA2FE180
0962901A24
07286FE4A1
01D7901B4D
00746FE474
000B901780
00006FE900
ENDCHAR
STARTCHAR Dcaron
ENCODING 270
SWIDTH 886 0
DWIDTH 25 0
BBX 23 32 1 0
BITMAP
000154550000
0000CCD90000
0000998C0000
000062680000
000033300000
00002E600000
00001D900000
000000000000
000000000000
6AAAAAA50000
A555555BD000
9AAAAAA47800
9955555B8A00
99AAAAA4A280
9995555B58D0
999AAAA5C960
9999555D6334
999800032668
999800029998
99980001999C
99980001CCCC
9998000199CC
999800019998
999800036698
9998000A7364
999BFFF89670
999000075C90
99BFFFF97580
99000006D700
9BFFFFFA2C00
90000005E000
BFFFFFFA4000
ENDCHAR
STARTCHAR dcaron
ENCODING 271
SWIDTH 1084 0
DWIDTH 30 0
BBX 29 21 1 0
BITMAP
0000000000016640
6AAAAA9400026640
9555556B40026640
9AAAAA91E0026640
9955556E28002640
99AAAA92CA007640
9995556D63419300
999AAA9725801A00
999955759CC1E400
9999001CCD900000
9999000999900000
9999000999900000
9999000CD9900000
99990029CCC00000
999BFFE369800000
9990001D72400000
99BFFFE5D6000000
9900001B5C000000
9BFFFFE4B4000000
9000001780000000
BFFFFFE800000000
ENDCHAR
STARTCHAR Dcroat
ENCODING 272
SWIDTH 888 0
DWIDTH 25 0
BBX 26 23 -2 0
BITMAP
01AAAAAA940000
029555556F4000
026AAAAA91E000
026555556E2800
0266AAAA928A00
026655556D6340
02666AAA976580
02666555758CD0
026664000C99A0
7A6663F00A6660
02666000066770
7A6663F0073330
02666000066730
7A6667F0066660
026664000D9A60
0266640028CD90
02666FFFE259C0
026640001D7240
0266FFFFE5D600
026400001B5C00
026FFFFFE8B400
02400000178000
02FFFFFFE90000
ENDCHAR
STARTCHAR dcroat
ENCODING 273
SWIDTH 833 0
DWIDTH 23 0
BBX 25 20 -2 0
BITMAP
02AAAAAA500000
02555555AD0000
026AAAAA478000
02655555B8A000
0266AAAA4A2800
02665555B58D00
02666AAA5C9600
02666555D67300
16666150733640
666662A0266640
16666550266640
666666A0336640
02666000A73300
02666FFF8DA600
0266400075C900
0266FFFF975800
026400006D7000
026FFFFF92D000
024000005E0000
02FFFFFFA00000
ENDCHAR
STARTCHAR Emacron
ENCODING 274
SWIDTH 706 0
DWIDTH 20 0
BBX 18 23 1 0
BITMAP
448AAAAA90
9999555550
999AAAAA90
9999555550
999AAAAA90
9999555550
9998000000
9998000000
9998000000
999AAA4000
9999550000
999BAA4000
9999550000
999BFF4000
9999000000
9998000000
9998000000
9998000000
999BFFFFE0
9999000000
999BFFFFE0
9999000000
999BFFFFE0
ENDCHAR
STARTCHAR emacron
ENCODING 275
SWIDTH 666 0
DWIDTH 19 0
BBX 17 20 1 0
BITMAP
988AAAAA40
9999555540
999AAAAA40
9999555500
999AAAAA40
9999555500
9998000000
9999555500
999AAAAA00
9999555500
999AAAAA00
9999555500
999AAAAA00
9998000000
9998000000
999BFFFF80
9999000000
999BFFFF80
9999000000
999BFFFF80
ENDCHAR
STARTCHAR Ebreve
ENCODING 276
SWIDTH 706 0
DWIDTH 20 0
BBX 18 29 1 0
BITMAP
0014014000
002659C000
0029964000
0006A90000
0000000000
0000000000
448AAAAA90
9999555550
999AAAAA90
9999555550
999AAAAA90
9999555550
9998000000
9998000000
9998000000
999AAA4000
9999550000
999BAA4000
9999550000
999BFF4000
9999000000
9998000000
9998000000
9998000000
999BFFFFE0
9999000000
999BFFFFE0
9999000000
999BFFFFE0
ENDCHAR
STARTCHAR ebreve
ENCODING 277
SWIDTH 666 0
DWIDTH 19 0
BBX 17 26 1 0
BITMAP
0044044000
0099594000
0025960000
000AA80000
0000000000
0000000000
988AAAAA40
9999555540
999AAAAA40
9999555500
999AAAAA40
9999555500
9998000000
9999555500
999AAAAA00
9999555500
999AAAAA00
9999555500
999AAAAA00
9998000000
9998000000
999BFFFF80
9999000000
999BFFFF80
9999000000
999BFFFF80
ENDCHAR
STARTCHAR Edotaccent
ENCODING 278
SWIDTH 706 0
DWIDTH 20 0
BBX 18 30 1 0
BITMAP
0006A90000
0001540000
0006A90000
0001540000
0006A90000
0001540000
0000000000
448AAAAA90
9999555550
999AAAAA90
9999555550
999AAAAA90
9999555550
9998000000
9998000000
9998000000
999AAA4000
9999550000
999BAA4000
9999550000
999BFF4000
9999000000
9998000000
9998000000
9998000000
999BFFFFE0
9999000000
999BFFFFE0
9999000000
999BFFFFE0
ENDCHAR
STARTCHAR edotaccent
ENCODING 279
SWIDTH 666 0
DWIDTH 19 0
BBX 17 27 1 0
BITMAP
000AA80000
0005540000
000AA80000
0005540000
000AA80000
0005500000
0000000000
988AAAAA40
9999555540
999AAAAA40
9999555500
999AAAAA40
9999555500
9998000000
9999555500
999AAAAA00
9999555500
999AAAAA00
9999555500
999AAAAA00
9998000000
9998000000
999BFFFF80
9999000000
999BFFFF80
9999000000
999BFFFF80
ENDCHAR
STARTCHAR Eogonek
ENCODING 280
SWIDTH 706 0
DWIDTH 20 0
BBX 18 31 1 -8
BITMAP
488AAAAA90
999D555550
999EAAAA90
999D555550
999EAAAA90
999D555550
999C000000
999C000000
999C000000
999EAA4000
999D550000
999FAA4000
999D550000
999FFF4000
999D000000
999C000000
999C000000
999C000000
999FFFFFE0
999D000000
999FFFFFE0
999C000000
999FFFFFF0
0000002900
00000031E0
0000006340
0000006600
0000006660
0000006660
0000006660
0000006660
ENDCHAR
STARTCHAR eogonek
ENCODING 281
SWIDTH 666 0
DWIDTH 19 0
BBX 17 28 1 -8
BITMAP
988AAAAA40
9999555540
999AAAAA40
9999555500
999AAAAA40
9999555500
9998000000
9999555500
999AAAAA00
9999555500
999AAAAA00
9999555500
999AAAAA00
9998000000
9998000000
999BFFFF80
9999000000
999BFFFF80
9999000000
999BFFFFC0
000000A400
000000C780
0000019D00
0000019800
0000019980
0000019980
0000019980
0000019940
ENDCHAR
STARTCHAR Ecaron
ENCODING 282
SWIDTH 706 0
DWIDTH 20 0
BBX 18 32 1 0
BITMAP
0022088000
0026598000
0019764000
000C630000
0009990000
0007CC0000
0002980000
0000000000
0000000000
448AAAAA90
9999555550
999AAAAA90
9999555550
999AAAAA90
9999555550
9998000000
9998000000
9998000000
999AAA4000
9999550000
999BAA4000
9999550000
999BFF4000
9999000000
9998000000
9998000000
9998000000
999BFFFFE0
9999000000
999BFFFFE0
9999000000
999BFFFFE0
ENDCHAR
STARTCHAR ecaron
ENCODING 283
SWIDTH 666 0
DWIDTH 19 0
BBX 17 29 1 0
BITMAP
0055154000
0067330000
0032660000
0028990000
000DCC0000
000B580000
0007240000
0000000000
0000000000
988AAAAA40
9999555540
999AAAAA40
9999555500
999AAAAA40
9999555500
9998000000
9999555500
999AAAAA00
9999555500
999AAAAA00
9999555500
999AAAAA00
9998000000
9998000000
999BFFFF80
9999000000
999BFFFF80
9999000000
999BFFFF80
ENDCHAR
STARTCHAR Gbreve
ENCODING 286
SWIDTH 908 0
DWIDTH 25 0
BBX 25 30 0 -1
BITMAP
00001001400000
00003659800000
00001966800000
000006A9000000
00000000000000
000005A9000000
0001BA56E40000
000B46A91A0000
0078B956E1D000
00D786A91D7400
025D7A56D75C00
0A32D1A968D000
0C962E578A0000
199CA000A10000
26658000100000
33330000000000
37760000000000
66660000266640
26660000266640
33330000266640
33364000266640
2659C000266640
18CD7401B66640
09A34BFEA66640
0728A401B66640
028A1BFEA66640
00A1E401766640
001D1BFEA66640
0002E401766640
00001BFE900000
ENDCHAR
STARTCHAR gbreve
ENCODING 287
SWIDTH 827 0
DWIDTH 23 0
BBX 22 27 0 -1
BITMAP
000110110000
000165660000
000096580000
00002AA00000
000000000000
00001A940000
0007E56B4000
00291A91A400
00D2E56E5D00
035D1A91D600
0A75E56D3400
0CD71A928000
259CA5684000
326680040000
333300000000
666600000000
666600033330
333300033330
333640033330
2658E01B3330
18CA2FE73330
0962901B3330
07286FE73330
01D7901B3330
00746FEB3330
000B90173330
00006FE90000
ENDCHAR
STARTCHAR Gdotaccent
ENCODING 288
SWIDTH 908 0
DWIDTH 25 0
BBX 25 31 0 -1
BITMAP
000006A9000000
00000155000000
000006A9000000
00000154000000
000006A9000000
00000154000000
000005A9000000
0001BA56E40000
000B46A91A0000
0078B956E1D000
00D786A91D7400
025D7A56D75C00
0A32D1A968D000
0C962E578A0000
199CA000A10000
26658000100000
33330000000000
37760000000000
66660000266640
26660000266640
33330000266640
33364000266640
2659C000266640
18CD7401B66640
09A34BFEA66640
0728A401B66640
028A1BFEA66640
00A1E401766640
001D1BFEA66640
0002E401766640
00001BFE900000
ENDCHAR
STARTCHAR gdotaccent
ENCODING 289
SWIDTH 827 0
DWIDTH 23 0
BBX 22 28 0 -1
BITMAP
00002AA00000
000015500000
00002AA00000
000015500000
00002AA00000
000015500000
00001A940000
0007E56B4000
00291A91A400
00D2E56E5D00
035D1A91D600
0A75E56D3400
0CD71A928000
259CA5684000
326680040000
333300000000
666600000000
666600033330
333300033330
333640033330
2658E01B3330
18CA2FE73330
0962901B3330
07286FE73330
01D7901B3330
00746FEB3330
000B90173330
00006FE90000
ENDCHAR
STARTCHAR Gcommaaccent
ENCODING 290
SWIDTH 908 0
DWIDTH 25 0
BBX 25 35 0 -11
BITMAP
000005A9000000
0001BA56E40000
000B46A91A0000
0078B956E1D000
00D786A91D7400
025D7A56D75C00
0A32D1A968D000
0C962E578A0000
199CA000A10000
26658000100000
33330000000000
37760000000000
66660000266640
26660000266640
33330000266640
33364000266640
2659C000266640
18CD7401B66640
09A34BFEA66640
0728A401B66640
028A1BFEA66640
00A1E401766640
001D1BFEA66640
0002E401766640
00001BFE900000
00000000000000
00000669000000
00000669000000
00000669000000
00000559000000
00000099000000
000001D9000000
0000064C000000
00000178000000
00000690000000
ENDCHAR
STARTCHAR gcommaaccent
ENCODING 291
SWIDTH 827 0
DWIDTH 23 0
BBX 22 22 0 -1
BITMAP
00001A940000
0007E56B4000
00291A91A400
00D2E56E5D00
035D1A91D600
0A75E56D3400
0CD71A928000
259CA5684000
326680040000
333300000000
666600000000
666600033330
333300033330
333640033330
2658E01B3330
18CA2FE73330
0962901B3330
07286FE73330
01D7901B3330
00746FEB3330
000B90173330
00006FE90000
ENDCHAR
STARTCHAR Hcircumflex
ENCODING 292
SWIDTH 901 0
DWIDTH 25 0
BBX 23 32 1 0
BITMAP
000009900000
00002E600000
000037300000
000062640000
0000959C0000
0000CCC90000
000198560000
000000000000
000000000000
448800008888
99980000CCCC
99980000CCCC
99980000CCCC
99980000CCCC
99980000CCCC
99980000CCCC
99980000CCCC
99980000CCCC
999AAAAACCCC
99995555CCCC
999BAAAACCCC
99990000CCCC
999BFFFFCCCC
99990000CCCC
99980000CCCC
99980000CCCC
99980000CCCC
99980000CCCC
99980000CCCC
99980000CCCC
99980000CCCC
99980000CCCC
ENDCHAR
STARTCHAR hcircumflex
ENCODING 293
SWIDTH 830 0
DWIDTH 23 0
BBX 21 29 1 0
BITMAP
000026400000
000079800000
0000DCC00000
000189900000
000256300000
000333640000
000661580000
000000000000
000000000000
988800088880
9998000CCCC0
9998000CCCC0
9998000CCCC0
9998000CCCC0
9998000CCCC0
9998000CCCC0
999AAAACCCC0
9999555CCCC0
999BAAACCCC0
9999000CCCC0
999BFFFCCCC0
9999000CCCC0
9998000CCCC0
9998000CCCC0
9998000CCCC0
9998000CCCC0
9998000CCCC0
9998000CCCC0
9998000CCCC0
ENDCHAR
STARTCHAR Hbar
ENCODING 294
SWIDTH 901 0
DWIDTH 25 0
BBX 27 23 -1 0
BITMAP
05488000088880
099990000CCCC0
099990000CCCC0
A9998FFFDCCCE8
099980000CCCC0
A9999FFFDCCCE8
099990000CCCC0
099990000CCCC0
099990000CCCC0
0999AAAAACCCC0
099995555CCCC0
0999BAAAACCCC0
099990000CCCC0
0999BFFFFCCCC0
099990000CCCC0
099990000CCCC0
099990000CCCC0
099990000CCCC0
099990000CCCC0
099990000CCCC0
099990000CCCC0
099990000CCCC0
099990000CCCC0
ENDCHAR
STARTCHAR hbar
ENCODING 295
SWIDTH 830 0
DWIDTH 23 0
BBX 25 20 -1 0
BITMAP
05888000888800
09999000CCCC00
59998AA9CCCD40
59998555CCCD40
59999AA9CCCD40
19999555CCCD40
09999000CCCC00
0999AAAACCCC00
09999555CCCC00
0999BAAACCCC00
09999000CCCC00
0999BFFFCCCC00
09999000CCCC00
09999000CCCC00
09999000CCCC00
09999000CCCC00
09999000CCCC00
09999000CCCC00
09999000CCCC00
09999000CCCC00
ENDCHAR
STARTCHAR Itilde
ENCODING 296
SWIDTH 338 0
DWIDTH 9 0
BBX 17 30 -4 0
BITMAP
06AAAA0880
2D55550CC0
71AAAAB580
6755554240
992AAAAD00
0415555000
0000000000
0011220000
0026660000
0026660000
0026660000
0026660000
0026660000
0026660000
0026660000
0026660000
0026660000
0026660000
0026660000
0026660000
0026660000
0026660000
0026660000
0026660000
0026660000
0026660000
0026660000
0026660000
0026660000
0026660000
ENDCHAR
STARTCHAR itilde
ENCODING 297
SWIDTH 337 0
DWIDTH 9 0
BBX 17 27 -4 0
BITMAP
06AAAA0880
2D55550CC0
71AAAAB580
6755554240
992AAAAD00
0415555000
0000000000
0026220000
0026660000
0026660000
0026660000
0026660000
0026660000
0026660000
0026660000
0026660000
0026660000
0026660000
0026660000
0026660000
0026660000
0026660000
0026660000
0026660000
0026660000
0026660000
0026660000
ENDCHAR
STARTCHAR Imacron
ENCODING 298
SWIDTH 338 0
DWIDTH 9 0
BBX 7 23 1 0
BITMAP
4488
9998
9998
9998
9998
9998
9998
9998
9998
9998
9998
9998
9998
9998
9998
9998
9998
9998
9998
9998
9998
9998
9998
ENDCHAR
STARTCHAR imacron
ENCODING 299
SWIDTH 337 0
DWIDTH 9 0
BBX 7 20 1 0
BITMAP
9888
9998
9998
9998
9998
9998
9998
9998
9998
9998
9998
9998
9998
9998
9998
9998
9998
9998
9998
9998
ENDCHAR
STARTCHAR Ibreve
ENCODING 300
SWIDTH 338 0
DWIDTH 9 0
BBX 9 29 0 0
BITMAP
040440
6A5980
259640
06A800
000000
000000
112200
266600
266600
266600
266600
266600
266600
266600
266600
266600
266600
266600
266600
266600
266600
266600
266600
266600
266600
266600
266600
266600
266600
ENDCHAR
STARTCHAR ibreve
ENCODING 301
SWIDTH 337 0
DWIDTH 9 0
BBX 9 26 0 0
BITMAP
040440
6A5980
259640
06A800
000000
000000
262200
266600
266600
266600
266600
266600
266600
266600
266600
266600
266600
266600
266600
266600
266600
266600
266600
266600
266600
266600
ENDCHAR
STARTCHAR Iogonek
ENCODING 302
SWIDTH 338 0
DWIDTH 9 0
BBX 8 31 1 -8
BITMAP
4488
9998
9998
9998
9998
9998
9998
9998
9998
9998
9998
9998
9998
9998
9998
9998
9998
9998
9998
9998
9998
9998
99FD
0390
062C
09A0
0990
099C
099C
099C
0988
ENDCHAR
STARTCHAR iogonek
ENCODING 303
SWIDTH 337 0
DWIDTH 9 0
BBX 8 28 1 -8
BITMAP
9888
9998
9998
9998
9998
9998
9998
9998
9998
9998
9998
9998
9998
9998
9998
9998
9998
9998
9998
99FD
0390
062D
09A0
0990
0999
0999
0999
0998
ENDCHAR
STARTCHAR Idotaccent
ENCODING 304
SWIDTH 338 0
DWIDTH 9 0
BBX 7 30 1 0
BITMAP
1AA0
1550
1AA0
1550
2AA0
1550
0000
4488
9998
9998
9998
9998
9998
9998
9998
9998
9998
9998
9998
9998
9998
9998
9998
9998
9998
9998
9998
9998
9998
9998
ENDCHAR
STARTCHAR dotlessi
ENCODING 305
SWIDTH 337 0
DWIDTH 9 0
BBX 7 20 1 0
BITMAP
9888
9998
9998
9998
9998
9998
9998
9998
9998
9998
9998
9998
9998
9998
9998
9998
9998
9998
9998
9998
ENDCHAR
STARTCHAR IJ
ENCODING 306
SWIDTH 774 0
DWIDTH 22 0
BBX 20 24 1 -1
BITMAP
4888005555
999C006999
999C006999
999C006999
999C006999
999C006999
999C006999
999C006999
999C006999
999C006999
999C006999
999C006999
999C006999
999C006999
999C006999
999C009999
999C00C999
999C2F5CCC
999C007698
999C2F8634
999C0068A0
999C3F9280
999C006E00
00003F9000
ENDCHAR
STARTCHAR ij
ENCODING 307
SWIDTH 729 0
DWIDTH 20 0
BBX 19 23 1 -3
BITMAP
5888015564
9999026664
9999026664
9999026664
9999026664
9999026664
9999026664
9999026664
9999026664
9999026664
9999026664
9999026664
9999026664
9999026664
9999026664
9999073330
999938A670
99990689A0
99993929C0
999905D340
00002A1D00
000005A400
00002A4000
ENDCHAR
STARTCHAR Jcircumflex
ENCODING 308
SWIDTH 434 0
DWIDTH 12 0
BBX 12 33 0 -1
BITMAP
001890
002D60
003730
006264
009998
01CCCC
025895
000000
000000
008888
00CCCC
00CCCC
00CCCC
00CCCC
00CCCC
00CCCC
00CCCC
00CCCC
00CCCC
00CCCC
00CCCC
00CCCC
00CCCC
00CCCC
00CCCC
029998
7E2658
00A334
7F4960
0075D0
7F8740
006900
7F9000
ENDCHAR
STARTCHAR jcircumflex
ENCODING 309
SWIDTH 393 0
DWIDTH 11 0
BBX 11 32 0 -3
BITMAP
006200
00B640
00D980
028C90
032A60
066330
099264
000000
000000
022220
033260
033260
033260
033260
033260
033260
033260
033260
033260
033260
033260
033260
033260
066660
096660
74D990
0758C0
797280
069600
792800
06E000
790000
ENDCHAR
STARTCHAR Kcommaaccent
ENCODING 310
SWIDTH 815 0
DWIDTH 23 0
BBX 21 33 1 -10
BITMAP
448800154880
999800336580
999800A63300
999800CD9600
99980299CC00
999803365800
999809673000
99980CD9A000
9998259CC000
999833268000
999896730000
9999CD960000
9998D9670000
999863364000
99982659C000
999818CD9000
999809A67000
999806336400
999802699C00
9998018CD900
9998009A6300
999800732640
9998002698C0
000000000000
000099900000
000099900000
000099900000
000099900000
000009900000
00001CC00000
0000A5C00000
000017400000
0000A8000000
ENDCHAR
STARTCHAR kcommaaccent
ENCODING 311
SWIDTH 801 0
DWIDTH 22 0
BBX 21 30 1 -10
BITMAP
988800215580
999800673240
999800C9A600
99980298CD00
999803365800
999809673000
99981CC9A000
99982698C000
999863364000
999899670000
9998CD960000
9998A6334000
999832698000
999819CC9000
99980D966000
999806336400
999802699C00
999801CC9900
999800966300
999800336580
000000000000
0000CCC00000
0000CCC00000
0000CCC00000
00008CC00000
00000CC00000
000018C00000
0000A1800000
00001B000000
0000A8000000
ENDCHAR
STARTCHAR kgreenlandic
ENCODING 312
SWIDTH 801 0
DWIDTH 22 0
BBX 21 20 1 0
BITMAP
988800215580
999800673240
999800C9A600
99980298CD00
999803365800
999809673000
99981CC9A000
99982698C000
999863364000
999899670000
9998CD960000
9998A6334000
999832698000
999819CC9000
99980D966000
999806336400
999802699C00
999801CC9900
999800966300
999800336580
ENDCHAR
STARTCHAR Lacute
ENCODING 313
SWIDTH 604 0
DWIDTH 17 0
BBX 17 32 1 0
BITMAP
0000000400
000000B800
00000B8740
0000B87900
000B479000
0014790000
0002900000
0000000000
0000000000
4488000000
9998000000
9998000000
9998000000
9998000000
9998000000
9998000000
9998000000
9998000000
9998000000
9998000000
9998000000
9998000000
9998000000
9998000000
9998000000
9998000000
9998000000
999BFFFC00
9999000000
999BFFFC00
9999000000
999BFFFC00
ENDCHAR
STARTCHAR lacute
ENCODING 314
SWIDTH 583 0
DWIDTH 16 0
BBX 15 29 1 0
BITMAP
00000400
0000B800
000B8640
00B87900
0B879000
04790000
02900000
00000000
00000000
98880000
99980000
99980000
99980000
99980000
99980000
99980000
99980000
99980000
99980000
99980000
99980000
99980000
99980000
99980000
999BFFF4
99990000
999BFFF4
99990000
999BFFF4
ENDCHAR
STARTCHAR Lcommaaccent
ENCODING 315
SWIDTH 604 0
DWIDTH 17 0
BBX 15 33 1 -10
BITMAP
44880000
99980000
99980000
99980000
99980000
99980000
99980000
99980000
99980000
99980000
99980000
99980000
99980000
99980000
99980000
99980000
99980000
99980000
999BFFFC
99990000
999BFFFC
99990000
999BFFFC
00000000
00267000
00267000
00267000
00267000
00033000
00073000
00296000
0006D000
002A0000
ENDCHAR
STARTCHAR lcommaaccent
ENCODING 316
SWIDTH 583 0
DWIDTH 16 0
BBX 15 30 1 -10
BITMAP
98880000
99980000
99980000
99980000
99980000
99980000
99980000
99980000
99980000
99980000
99980000
99980000
99980000
99980000
99980000
999BFFF4
99990000
999BFFF4
99990000
999BFFF4
00000000
00332000
00332000
00332000
00232000
00026000
001A6000
00289000
00168000
00290000
ENDCHAR
STARTCHAR Lcaron
ENCODING 317
SWIDTH 856 0
DWIDTH 24 0
BBX 22 24 1 0
BITMAP
000000002330
488800003330
999C00003330
999C00003330
999C00000330
999C00000730
999C00002960
999C000005D0
999C00002A00
999C00000000
999C00000000
999C00000000
999C00000000
999C00000000
999C00000000
999C00000000
999C00000000
999C00000000
999C00000000
999FFFFC0000
999D00000000
999FFFFC0000
999C00000000
999FFFFC0000
ENDCHAR
STARTCHAR lcaron
ENCODING 318
SWIDTH 584 0
DWIDTH 16 0
BBX 15 21 1 0
BITMAP
00002660
58882664
99992664
99992664
99990260
99990730
99992970
999901D0
99992A40
99990000
99990000
99990000
99990000
99990000
99990000
99990000
999BFFF4
99990000
999BFFF4
99990000
999BFFF4
ENDCHAR
STARTCHAR Ldot
ENCODING 319
SWIDTH 604 0
DWIDTH 17 0
BBX 15 23 1 0
BITMAP
44880000
99980000
99980000
99980000
99980000
99980000
99980000
99980000
99982AA0
99981550
99982AA0
99981540
99982AA0
99981540
99980000
99980000
99980000
99980000
999BFFFC
99990000
999BFFFC
99990000
999BFFFC
ENDCHAR
STARTCHAR ldot
ENCODING 320
SWIDTH 582 0
DWIDTH 16 0
BBX 15 20 1 0
BITMAP
58880000
99990000
99990000
99990000
99992AA0
99991550
99992AA0
99991540
99992AA0
99991540
99990000
99990000
99990000
99990000
99990000
999BFFF4
99990000
999BFFF4
99990000
999BFFF4
ENDCHAR
STARTCHAR Lslash
ENCODING 321
SWIDTH 604 0
DWIDTH 17 0
BBX 18 23 -2 0
BITMAP
0152200000
0266640000
0266640000
0266640000
0266640000
0266641800
026662E400
0266611800
026662E400
1666611800
A66666E400
1666650000
A666640000
1666640000
A666640000
0266640000
0266640000
0266640000
02666FFFF0
0266640000
02666FFFF0
0266640000
02666FFFF0
ENDCHAR
STARTCHAR lslash
ENCODING 322
SWIDTH 581 0
DWIDTH 16 0
BBX 18 20 -2 0
BITMAP
0162200000
0266640000
0266640000
0266640400
026665B800
0266624400
026665B800
0266624400
6A6665B800
5266664000
6A66640000
5266640000
6A66640000
5266640000
0266640000
02666FFFD0
0266640000
02666FFFD0
0266640000
02666FFFD0
ENDCHAR
STARTCHAR Nacute
ENCODING 323
SWIDTH 877 0
DWIDTH 25 0
BBX 23 32 1 0
BITMAP
000000001000
00000001B400
0000001A4B00
000001A4B800
00001A4B8000
000014B80000
000007400000
000000000000
000000000000
522140015550
B658C0026664
A8C960026664
996734026664
97369C026664
969CDA026664
99DA63026664
996325826664
99658C926664
999C96726664
9996736A6664
999769CD6664
9999CDA62664
9998A6326664
99983258D664
999818C9A264
999809673664
999807369D64
9998029CD924
999800DA6324
9998006325A4
999800258CB4
9998000C9A74
ENDCHAR
STARTCHAR nacute
ENCODING 324
SWIDTH 787 0
DWIDTH 22 0
BBX 20 29 1 0
BITMAP
0000000040
0000000790
0000007968
00000796D0
0000796D00
000046D000
00001D0000
0000000000
0000000000
9225400226
B258C00666
A9C9A00666
9DA7340666
9736580666
9658C90666
99C9A70666
99A7368666
997658C666
9998C96666
9999A73666
9997369966
999258C966
9990C96766
9990A736A6
99903698D6
999018C966
999009673A
999007369E
99900298DA
ENDCHAR
STARTCHAR Ncommaaccent
ENCODING 325
SWIDTH 877 0
DWIDTH 25 0
BBX 23 33 1 -10
BITMAP
522140015550
B658C0026664
A8C960026664
996734026664
97369C026664
969CDA026664
99DA63026664
996325826664
99658C926664
999C96726664
9996736A6664
999769CD6664
9999CDA62664
9998A6326664
99983258D664
999818C9A264
999809673664
999807369D64
9998029CD924
999800DA6324
9998006325A4
999800258CB4
9998000C9A74
000000000000
000066600000
000066600000
000066600000
000026600000
000006600000
00001A600000
000028900000
000016800000
000029000000
ENDCHAR
STARTCHAR ncommaaccent
ENCODING 326
SWIDTH 787 0
DWIDTH 22 0
BBX 20 30 1 -10
BITMAP
9225400226
B258C00666
A9C9A00666
9DA7340666
9736580666
9658C90666
99C9A70666
99A7368666
997658C666
9998C96666
9999A73666
9997369966
999258C966
9990C96766
9990A736A6
99903698D6
999018C966
999009673A
999007369E
99900298DA
0000000000
00019A4000
00019A4000
00019A4000
00019A4000
0000264000
0000764000
0001930000
00005E0000
0001A40000
ENDCHAR
STARTCHAR Ncaron
ENCODING 327
SWIDTH 877 0
DWIDTH 25 0
BBX 23 32 1 0
BITMAP
000264890000
000199CC0000
0000CA580000
000093340000
000066600000
00003D900000
00001CC00000
000000000000
000000000000
522140015550
B658C0026664
A8C960026664
996734026664
97369C026664
969CDA026664
99DA63026664
996325826664
99658C926664
999C96726664
9996736A6664
999769CD6664
9999CDA62664
9998A6326664
99983258D664
999818C9A264
999809673664
999807369D64
9998029CD924
999800DA6324
9998006325A4
999800258CB4
9998000C9A74
ENDCHAR
STARTCHAR ncaron
ENCODING 328
SWIDTH 787 0
DWIDTH 22 0
BBX 20 29 1 0
BITMAP
0008822000
0009966000
0006599000
00031CC000
0002658000
0000F30000
0000A60000
0000000000
0000000000
9225400226
B258C00666
A9C9A00666
9DA7340666
9736580666
9658C90666
99C9A70666
99A7368666
997658C666
9998C96666
9999A73666
9997369966
999258C966
9990C96766
9990A736A6
99903698D6
999018C966
999009673A
999007369E
99900298DA
ENDCHAR
STARTCHAR Eng
ENCODING 330
SWIDTH 874 0
DWIDTH 24 0
BBX 23 32 1 -9
BITMAP
522540015220
B658C0026664
A8C960026664
996324026664
93258C026664
958C96026664
999632426664
997358C26664
9969CD626664
998DA7266664
9997369A6664
99969CD66664
9998D9726664
999963266664
9999258A6664
99990C926664
999906326664
9999035A6664
999901C66664
999900A26664
999900366664
999900166664
999900026664
000000022730
000000063330
000000F8A660
000000068D90
000000F925C0
00000006D340
000000AA1D00
00000055A400
000000AA4000
ENDCHAR
STARTCHAR eng
ENCODING 331
SWIDTH 691 0
DWIDTH 19 0
BBX 17 28 1 -8
BITMAP
9225408880
B258C0CCC0
A9C9A0CCC0
9DA734CCC0
973658CCC0
9658C9CCC0
99C9A6CCC0
99A735CCC0
997658CCC0
9998C9CCC0
9999A6CCC0
999735CCC0
999258CCC0
9990C9CCC0
9990A6CCC0
999035CCC0
999018CCC0
999009CCC0
999006CCC0
999001CCC0
000000CCC0
000000CCC0
0000065980
0000097640
000006D600
0000091C00
000006E000
0000090000
ENDCHAR
STARTCHAR Omacron
ENCODING 332
SWIDTH 933 0
DWIDTH 26 0
BBX 26 25 0 -1
BITMAP
000005A5000000
0001BA5AE40000
000B46A91A0000
0078B956E1D000
00D786A91D7400
025D7A56D35C00
0A32D1A968D600
0C962E578A7340
199CA000A36980
26658000299CC0
333300000CCCC0
37760000099990
66660000099990
26660000099990
333300000C9990
3366400019CCC0
2698D000765980
1CCA7801D63640
09628BFE1CA600
0728B401A28D00
01CA5BFE4A2400
0075E401B4A000
001E1BFE474000
0002E401B80000
00001BFE400000
ENDCHAR
STARTCHAR omacron
ENCODING 333
SWIDTH 833 0
DWIDTH 23 0
BBX 23 22 0 -1
BITMAP
00001A940000
0007E56B4000
00291A90B000
00D2E56E5D00
035D1A91D700
0A75E56D3580
0CD71A928C90
259CA5689660
3266800A7330
333300036664
666600026664
666600026664
333300026664
333640073330
2658E01DA660
18CA2FE18D90
0962901A29C0
07286FE4A340
01D7901B4900
00746FE47400
000B90179000
00006FE90000
ENDCHAR
STARTCHAR Obreve
ENCODING 334
SWIDTH 933 0
DWIDTH 26 0
BBX 26 30 0 -1
BITMAP
00001001400000
00003659800000
00001966800000
000006A9000000
00000000000000
000005A5000000
0001BA5AE40000
000B46A91A0000
0078B956E1D000
00D786A91D7400
025D7A56D35C00
0A32D1A968D600
0C962E578A7340
199CA000A36980
26658000299CC0
333300000CCCC0
37760000099990
66660000099990
26660000099990
333300000C9990
3366400019CCC0
2698D000765980
1CCA7801D63640
09628BFE1CA600
0728B401A28D00
01CA5BFE4A2400
0075E401B4A000
001E1BFE474000
0002E401B80000
00001BFE400000
ENDCHAR
STARTCHAR obreve
ENCODING 335
SWIDTH 833 0
DWIDTH 23 0
BBX 23 27 0 -1
BITMAP
000110110000
000165660000
000096580000
00002AA00000
000000000000
00001A940000
0007E56B4000
00291A90B000
00D2E56E5D00
035D1A91D700
0A75E56D3580
0CD71A928C90
259CA5689660
3266800A7330
333300036664
666600026664
666600026664
333300026664
333640073330
2658E01DA660
18CA2FE18D90
0962901A29C0
07286FE4A340
01D7901B4900
00746FE47400
000B90179000
00006FE90000
ENDCHAR
STARTCHAR Ohungarumlaut
ENCODING 336
SWIDTH 933 0
DWIDTH 26 0
BBX 27 33 0 -1
BITMAP
00000004000040
00000078000690
0000079680692C
0000796D0792E0
000786D0792D00
00046D0056D000
000190001D0000
00000000000000
000005A5000000
0001BA5AE40000
000B46A91A0000
0078B956E1D000
00D786A91D7400
025D7A56D35C00
0A32D1A968D600
0C962E578A7340
199CA000A36980
26658000299CC0
333300000CCCC0
37760000099990
66660000099990
26660000099990
333300000C9990
3366400019CCC0
2698D000765980
1CCA7801D63640
09628BFE1CA600
0728B401A28D00
01CA5BFE4A2400
0075E401B4A000
001E1BFE474000
0002E401B80000
00001BFE400000
ENDCHAR
STARTCHAR ohungarumlaut
ENCODING 337
SWIDTH 833 0
DWIDTH 23 0
BBX 26 30 0 -1
BITMAP
00000010000100
000006D0002E00
00006D1D02E1D0
0006D1E42E1E40
006D1E02E1E400
0052E0011E4000
000E0000A40000
00000000000000
00001A94000000
0007E56B400000
00291A90B00000
00D2E56E5D0000
035D1A91D70000
0A75E56D358000
0CD71A928C9000
259CA568966000
3266800A733000
33330003666400
66660002666400
66660002666400
33330002666400
33364007333000
2658E01DA66000
18CA2FE18D9000
0962901A29C000
07286FE4A34000
01D7901B490000
00746FE4740000
000B9017900000
00006FE9000000
ENDCHAR
STARTCHAR OE
ENCODING 338
SWIDTH 1317 0
DWIDTH 37 0
BBX 36 25 0 -1
BITMAP
000005A90000000000
0001BA56E4556AAAAA
000B46A91A99A55555
0074B956E199AAAAAA
00D786A92D99A55555
035D7A56D699AAAAAA
0A32D1A96899A55555
0CD62E578999900000
199CA000A299900000
266580002999900000
333300000C99BAA800
366600000999955000
666600000999BAA800
666600000999955000
333300000C99BFF800
336640001899900000
2698D0007699900000
18CA7802D699900000
09638BFE1C99900000
0728B401A299BFFFFE
018A5BFE5A99900000
0071E401B499BFFFFE
001E1BFE4799900000
0002E401B899BFFFFE
00001BFE4000000000
ENDCHAR
STARTCHAR oe
ENCODING 339
SWIDTH 1174 0
DWIDTH 33 0
BBX 32 22 0 -1
BITMAP
00001A9400000000
0007E56B555AAAAA
00291A94A6695555
00D2E56E666AAAAA
035D1A91E6695555
0A75E56D266EAAAA
0CD71A92A6695555
259CA568A6640000
3266800A66695554
33330003666AAAA8
6666000266695554
66660002666AAAA8
3333000266695554
33364007266AAAA8
2658E01DA6640000
18CA2FE2A6640000
0962901A266FFFFE
07286FE4A6640000
01D7901B666FFFFE
00746FE866640000
000B9016A66FFFFE
00006FE900000000
ENDCHAR
STARTCHAR Racute
ENCODING 340
SWIDTH 843 0
DWIDTH 24 0
BBX 22 32 1 0
BITMAP
000000100000
000001E00000
00001E5A0000
0001E5B40000
001E1B400000
0011B4000000
000640000000
000000000000
000000000000
6AAAAAA90000
A5555556E000
9AAAAAA92C00
99555556D700
99AAAAA97580
999555579CD0
999AAAA8D960
9999555A6660
999800037660
9999555A6660
9999AAA899A0
999955578CD0
9999AAA97580
99995556D700
9999AAA92D00
99995556F000
9999ABBB7400
9998019A9800
999800CDCC00
999800999900
999800666600
999800333300
999800266640
ENDCHAR
STARTCHAR Rcommaaccent
ENCODING 342
SWIDTH 843 0
DWIDTH 24 0
BBX 22 33 1 -10
BITMAP
6AAAAAA90000
A5555556E000
9AAAAAA92C00
99555556D700
99AAAAA97580
999555579CD0
999AAAA8D960
9999555A6660
999800037660
9999555A6660
9999AAA899A0
999955578CD0
9999AAA97580
99995556D700
9999AAA92D00
99995556F000
9999ABBB7400
9998019A9800
999800CDCC00
999800999900
999800666600
999800333300
999800266640
000000000000
0000CCC00000
0000CCC00000
0000CCC00000
0000CCC00000
00000C800000
000069800000
0000A2400000
00005A000000
0000A4000000
ENDCHAR
STARTCHAR rcommaaccent
ENCODING 343
SWIDTH 831 0
DWIDTH 23 0
BBX 22 30 1 -10
BITMAP
AAAAAAA90000
95555556E000
9AAAAAA92C00
99555556D700
99AAAAA97680
9995555758C0
999AAAA8C990
999955599990
9999555D9990
9999AAA5CCD0
9999555B59C0
9999AAA47280
9999555A8A00
9999AAA52C00
9999555AE000
9999ABBA6000
999803333000
999802666400
999801D99800
999800DDDD00
000000000000
000266400000
000266400000
000266400000
000266400000
000026400000
000072400000
000293000000
00005D000000
0001A4000000
ENDCHAR
STARTCHAR Rcaron
ENCODING 344
SWIDTH 843 0
DWIDTH 24 0
BBX 22 32 1 0
BITMAP
022088000000
026598000000
019764000000
00C630000000
0099A0000000
007CC0000000
002980000000
000000000000
000000000000
6AAAAAA90000
A5555556E000
9AAAAAA92C00
99555556D700
99AAAAA97580
999555579CD0
999AAAA8D960
9999555A6660
999800037660
9999555A6660
9999AAA899A0
999955578CD0
9999AAA97580
99995556D700
9999AAA92D00
99995556F000
9999ABBB7400
9998019A9800
999800CDCC00
999800999900
999800666600
999800333300
999800266640
ENDCHAR
STARTCHAR rcaron
ENCODING 345
SWIDTH 831 0
DWIDTH 23 0
BBX 22 29 1 0
BITMAP
000621880000
000326580000
000297300000
0000C6600000
000099900000
00007CC00000
000035800000
000000000000
000000000000
AAAAAAA90000
95555556E000
9AAAAAA92C00
99555556D700
99AAAAA97680
9995555758C0
999AAAA8C990
999955599990
9999555D9990
9999AAA5CCD0
9999555B59C0
9999AAA47280
9999555A8A00
9999AAA52C00
9999555AE000
9999ABBA6000
999803333000
999802666400
999801D99800
999800DDDD00
ENDCHAR
STARTCHAR Sacute
ENCODING 346
SWIDTH 682 0
DWIDTH 19 0
BBX 18 33 1 -1
BITMAP
0000000100
0000002E00
000002E190
00002E1E40
0002E1E400
00011E4000
0000A40000
0000000000
0016A50000
01B956F400
0B46A91B40
28B956E590
7286A91A00
9A3956E000
CC96A91000
CCCD564000
D998000000
CCCAAA4000
C9A156E000
A62FA91D00
369156D700
1D6FA97240
0790175980
00BFE4CCC0
00001C89C0
00100C9990
006FF8CCC0
03900759C0
246FF97640
4B9006D600
A46FF92C00
1A9005E000
016FFA4000
ENDCHAR
STARTCHAR sacute
ENCODING 347
SWIDTH 683 0
DWIDTH 19 0
BBX 18 30 1 -1
BITMAP
0000000100
0000002E00
000002E190
00002E1E40
0002E1E400
00011E4000
0000A40000
0000000000
0000000000
00AFBF9000
0B90406E00
286EAF92C0
6291506D40
D96EAF9500
CCD0006000
D8C0000000
CCA5540000
9A1AABE000
72E5542D00
1D1AAB9740
06E5547580
005AAB8CC0
000000D990
010000D990
01E95B9CC0
1D15947580
D2EA6B9700
2915946C00
06EAABD000
0015540000
ENDCHAR
STARTCHAR Scircumflex
ENCODING 348
SWIDTH 682 0
DWIDTH 19 0
BBX 18 33 1 -1
BITMAP
0006240000
000B980000
000DCC0000
0018990000
0026660000
0073334000
0056254000
0000000000
0016A50000
01B956F400
0B46A91B40
28B956E590
7286A91A00
9A3956E000
CC96A91000
CCCD564000
D998000000
CCCAAA4000
C9A156E000
A62FA91D00
369156D700
1D6FA97240
0790175980
00BFE4CCC0
00001C89C0
00100C9990
006FF8CCC0
03900759C0
246FF97640
4B9006D600
A46FF92C00
1A9005E000
016FFA4000
ENDCHAR
STARTCHAR scircumflex
ENCODING 349
SWIDTH 683 0
DWIDTH 19 0
BBX 18 30 1 -1
BITMAP
0002240000
000B980000
000DCC0000
0018990000
0026660000
0033334000
0056258000
0000000000
0000000000
00AFBF9000
0B90406E00
286EAF92C0
6291506D40
D96EAF9500
CCD0006000
D8C0000000
CCA5540000
9A1AABE000
72E5542D00
1D1AAB9740
06E5547580
005AAB8CC0
000000D990
010000D990
01E95B9CC0
1D15947580
D2EA6B9700
2915946C00
06EAABD000
0015540000
ENDCHAR
STARTCHAR Scedilla
ENCODING 350
SWIDTH 682 0
DWIDTH 19 0
BBX 18 34 1 -10
BITMAP
0016A50000
01B956F400
0B46A91B40
28B956E590
7286A91A00
9A3956E000
CC96A91000
CCCD564000
D998000000
CCCAAA4000
C9A156E000
A62FA91D00
369156D700
1D6FA97240
0790175980
00BFE4CCC0
00001C89C0
00100C9990
006FF8CCC0
03900759C0
246FF97640
4B9006D600
A46FF92C00
1A9005E000
016FFA4000
0017300000
00B5300000
00C6B00000
019D500000
0198000000
019D500000
00C5A00000
007A500000
0005A00000
ENDCHAR
STARTCHAR scedilla
ENCODING 351
SWIDTH 683 0
DWIDTH 19 0
BBX 18 30 1 -10
BITMAP
00AFBF9000
0B90406E00
286EAF92C0
6291506D40
D96EAF9500
CCD0006000
D8C0000000
CCA5540000
9A1AABE000
72E5542D00
1D1AAB9740
06E5547580
005AAB8CC0
000000D990
010000D990
01E95B9CC0
1D15947580
D2EA6B9700
2915946C00
06EAABD000
0017740000
0017300000
00B5300000
00C6B00000
019D500000
0198000000
018E500000
00C5A00000
007A500000
0005A00000
ENDCHAR
STARTCHAR Scaron
ENCODING 352
SWIDTH 682 0
DWIDTH 19 0
BBX 18 33 1 -1
BITMAP
0066198000
0033264000
0026730000
0018A60000
0009C90000
00079C0000
0003640000
0000000000
0016A50000
01B956F400
0B46A91B40
28B956E590
7286A91A00
9A3956E000
CC96A91000
CCCD564000
D998000000
CCCAAA4000
C9A156E000
A62FA91D00
369156D700
1D6FA97240
0790175980
00BFE4CCC0
00001C89C0
00100C9990
006FF8CCC0
03900759C0
246FF97640
4B9006D600
A46FF92C00
1A9005E000
016FFA4000
ENDCHAR
STARTCHAR scaron
ENCODING 353
SWIDTH 683 0
DWIDTH 19 0
BBX 18 30 1 -1
BITMAP
0066198000
0033264000
0026730000
0018A60000
0009C90000
00079C0000
0003640000
0000000000
0000000000
00AFBF9000
0B90406E00
286EAF92C0
6291506D40
D96EAF9500
CCD0006000
D8C0000000
CCA5540000
9A1AABE000
72E5542D00
1D1AAB9740
06E5547580
005AAB8CC0
000000D990
010000D990
01E95B9CC0
1D15947580
D2EA6B9700
2915946C00
06EAABD000
0015540000
ENDCHAR
STARTCHAR Tcommaaccent
ENCODING 354
SWIDTH 591 0
DWIDTH 17 0
BBX 15 32 1 -9
BITMAP
AAAAAAA4
55555554
AAAAAAA4
55555554
AAAAAAA4
5599A950
01999800
01999800
01999800
01999800
01999800
01999800
01999800
01999800
01999800
01999800
01999800
01999800
01999800
01999800
01999800
01999800
019DD800
00698000
02958000
061A8000
09A54000
09900000
09654000
061A4000
02E54000
00564000
ENDCHAR
STARTCHAR tcommaaccent
ENCODING 355
SWIDTH 588 0
DWIDTH 16 0
BBX 15 29 1 -9
BITMAP
AAAAAAA4
55555554
AAAAAAA4
55555550
AAAAAAA4
55555550
01999800
01999800
01999800
01999800
01999800
01999800
01999800
01999800
01999800
01999800
01999800
01999800
01999800
019DD800
00698000
02958000
061A8000
09A54000
09900000
09654000
061A4000
02E54000
005A4000
ENDCHAR
STARTCHAR Tcaron
ENCODING 356
SWIDTH 591 0
DWIDTH 17 0
BBX 15 32 1 0
BITMAP
02248900
0299CC00
00CA5800
00933000
00666000
003D9000
0028C000
00000000
00000000
AAAAAAA4
55555554
AAAAAAA4
55555554
AAAAAAA4
5599A950
01999800
01999800
01999800
01999800
01999800
01999800
01999800
01999800
01999800
01999800
01999800
01999800
01999800
01999800
01999800
01999800
01999800
ENDCHAR
STARTCHAR tcaron
ENCODING 357
SWIDTH 842 0
DWIDTH 24 0
BBX 22 21 1 0
BITMAP
000000006660
AAAAAAA46660
555555546660
AAAAAAA46660
555555500660
AAAAAAA40960
555555507890
019998000680
019998007900
019998000000
019998000000
019998000000
019998000000
019998000000
019998000000
019998000000
019998000000
019998000000
019998000000
019998000000
019998000000
ENDCHAR
STARTCHAR Tbar
ENCODING 358
SWIDTH 591 0
DWIDTH 17 0
BBX 15 23 1 0
BITMAP
AAAAAAA4
55555554
AAAAAAA4
55555554
AAAAAAA4
5599A950
01999800
01999800
01999800
FC999AF4
01999800
FC999AF4
01999800
FD999AF4
01999800
01999800
01999800
01999800
01999800
01999800
01999800
01999800
01999800
ENDCHAR
STARTCHAR tbar
ENCODING 359
SWIDTH 588 0
DWIDTH 16 0
BBX 15 20 1 0
BITMAP
AAAAAAA4
55555554
AAAAAAA4
55555550
AAAAAAA4
55555550
01999800
01999800
01999800
01999800
FC999AF4
55999850
A8999AA4
55999850
A9999AA4
01999800
01999800
01999800
01999800
01999800
ENDCHAR
STARTCHAR Utilde
ENCODING 360
SWIDTH 905 0
DWIDTH 25 0
BBX 23 31 1 -1
BITMAP
001AAAA82200
00A555546300
0186AAAAD600
025955550D00
0264AAAAB400
011055554000
000000000000
888800008888
CCCC000099CC
CCCC000099CC
CCCC000099CC
CCCC000099CC
CCCC000099CC
CCCC000099CC
CCCC000099CC
CCCC000099CC
CCCC000099CC
CCCC000099CC
CCCC000099CC
CCCC000099CC
9CCC0000CCCC
99990000CCCC
966700025998
6335D01A3268
369D6FE5D630
1C97901B5DA0
0A286FE475C0
028B90178700
00B46FE96800
001B9016D000
0001AFE90000
ENDCHAR
STARTCHAR utilde
ENCODING 361
SWIDTH 795 0
DWIDTH 22 0
BBX 20 28 1 -1
BITMAP
006AAA9154
0795555264
092AAAAA34
0CE55554A0
1986AAAB80
0441555400
0000000000
8888002222
CCCC002733
CCCC002733
CCCC002733
CCCC002733
CCCC002733
CCCC002733
CCCC002733
CCCC002733
CCCC002733
CCCC002733
CCCC003333
9999007333
9A6741D666
6735BE5C99
268E40B58C
1CA1BF8B24
062E4078A0
02D6FF9280
0069006D00
0006BF9000
ENDCHAR
STARTCHAR Umacron
ENCODING 362
SWIDTH 905 0
DWIDTH 25 0
BBX 23 24 1 -1
BITMAP
888800008888
CCCC000099CC
CCCC000099CC
CCCC000099CC
CCCC000099CC
CCCC000099CC
CCCC000099CC
CCCC000099CC
CCCC000099CC
CCCC000099CC
CCCC000099CC
CCCC000099CC
CCCC000099CC
9CCC0000CCCC
99990000CCCC
966700025998
6335D01A3268
369D6FE5D630
1C97901B5DA0
0A286FE475C0
028B90178700
00B46FE96800
001B9016D000
0001AFE90000
ENDCHAR
STARTCHAR umacron
ENCODING 363
SWIDTH 795 0
DWIDTH 22 0
BBX 20 21 1 -1
BITMAP
8888002222
CCCC002733
CCCC002733
CCCC002733
CCCC002733
CCCC002733
CCCC002733
CCCC002733
CCCC002733
CCCC002733
CCCC002733
CCCC003333
9999007333
9A6741D666
6735BE5C99
268E40B58C
1CA1BF8B24
062E4078A0
02D6FF9280
0069006D00
0006BF9000
ENDCHAR
STARTCHAR Ubreve
ENCODING 364
SWIDTH 905 0
DWIDTH 25 0
BBX 23 30 1 -1
BITMAP
000010110000
0001A5660000
000096580000
00002AA00000
000000000000
000000000000
888800008888
CCCC000099CC
CCCC000099CC
CCCC000099CC
CCCC000099CC
CCCC000099CC
CCCC000099CC
CCCC000099CC
CCCC000099CC
CCCC000099CC
CCCC000099CC
CCCC000099CC
CCCC000099CC
9CCC0000CCCC
99990000CCCC
966700025998
6335D01A3268
369D6FE5D630
1C97901B5DA0
0A286FE475C0
028B90178700
00B46FE96800
001B9016D000
0001AFE90000
ENDCHAR
STARTCHAR ubreve
ENCODING 365
SWIDTH 795 0
DWIDTH 22 0
BBX 20 27 1 -1
BITMAP
0004005000
000D966000
000659A000
0001AA4000
0000000000
0000000000
8888002222
CCCC002733
CCCC002733
CCCC002733
CCCC002733
CCCC002733
CCCC002733
CCCC002733
CCCC002733
CCCC002733
CCCC002733
CCCC003333
9999007333
9A6741D666
6735BE5C99
268E40B58C
1CA1BF8B24
062E4078A0
02D6FF9280
0069006D00
0006BF9000
ENDCHAR
STARTCHAR Uring
ENCODING 366
SWIDTH 905 0
DWIDTH 25 0
BBX 23 33 1 -1
BITMAP
00001A900000
000065680000
000099980000
0000A4290000
0000D8690000
000096980000
000029A00000
000001400000
000000000000
888800008888
CCCC000099CC
CCCC000099CC
CCCC000099CC
CCCC000099CC
CCCC000099CC
CCCC000099CC
CCCC000099CC
CCCC000099CC
CCCC000099CC
CCCC000099CC
CCCC000099CC
CCCC000099CC
9CCC0000CCCC
99990000CCCC
966700025998
6335D01A3268
369D6FE5D630
1C97901B5DA0
0A286FE475C0
028B90178700
00B46FE96800
001B9016D000
0001AFE90000
ENDCHAR
STARTCHAR uring
ENCODING 367
SWIDTH 795 0
DWIDTH 22 0
BBX 20 30 1 -1
BITMAP
0000AA0000
0002558000
0005966000
0009826000
0005826000
0002699000
0001A64000
0000140000
0000000000
8888002222
CCCC002733
CCCC002733
CCCC002733
CCCC002733
CCCC002733
CCCC002733
CCCC002733
CCCC002733
CCCC002733
CCCC002733
CCCC003333
9999007333
9A6741D666
6735BE5C99
268E40B58C
1CA1BF8B24
062E4078A0
02D6FF9280
0069006D00
0006BF9000
ENDCHAR
STARTCHAR Uhungarumlaut
ENCODING 368
SWIDTH 905 0
DWIDTH 25 0
BBX 26 33 1 -1
BITMAP
00000010000100
000002D0002E00
00006D1D02E1A0
0006D1E42E1A40
006D1E42E1E400
0051E0011E4000
000E0000A40000
00000000000000
00000000000000
88880000888800
CCCC000099CC00
CCCC000099CC00
CCCC000099CC00
CCCC000099CC00
CCCC000099CC00
CCCC000099CC00
CCCC000099CC00
CCCC000099CC00
CCCC000099CC00
CCCC000099CC00
CCCC000099CC00
CCCC000099CC00
9CCC0000CCCC00
99990000CCCC00
96670002599800
6335D01A326800
369D6FE5D63000
1C97901B5DA000
0A286FE475C000
028B9017870000
00B46FE9680000
001B9016D00000
0001AFE9000000
ENDCHAR
STARTCHAR uhungarumlaut
ENCODING 369
SWIDTH 795 0
DWIDTH 22 0
BBX 24 30 1 -1
BITMAP
000001000010
00001E0001A4
0001E5A01A4B
001E5B41A4B8
01E1B41E4B80
011B4014B400
006400074000
000000000000
000000000000
888800222200
CCCC00273300
CCCC00273300
CCCC00273300
CCCC00273300
CCCC00273300
CCCC00273300
CCCC00273300
CCCC00273300
CCCC00273300
CCCC00273300
CCCC00333300
999900733300
9A6741D66600
6735BE5C9900
268E40B58C00
1CA1BF8B2400
062E4078A000
02D6FF928000
0069006D0000
0006BF900000
ENDCHAR
STARTCHAR Uogonek
ENCODING 370
SWIDTH 905 0
DWIDTH 25 0
BBX 23 32 1 -9
BITMAP
888800008888
CCCC000099CC
CCCC000099CC
CCCC000099CC
CCCC000099CC
CCCC000099CC
CCCC000099CC
CCCC000099CC
CCCC000099CC
CCCC000099CC
CCCC000099CC
CCCC000099CC
CCCC000099CC
9CCC0000CCCC
99990000CCCC
966700025998
6335D01A3268
369D6FE5D630
1C97901B5DA0
0A286FE475C0
028B90178700
00B46FE96800
001B9016D000
0001BFE90000
0000A4000000
0001CB400000
000198000000
000264000000
000266400000
000266400000
000266400000
000156400000
ENDCHAR
STARTCHAR uogonek
ENCODING 371
SWIDTH 794 0
DWIDTH 22 0
BBX 20 29 1 -9
BITMAP
8888002222
CCCC002333
CCCC002333
CCCC002333
CCCC002333
CCCC002333
CCCC002333
CCCC002333
CCCC002333
CCCC002333
CCCC002333
CCCC003333
9999007333
996741D666
6735BE5C99
368E40B58C
1CA1FF8B24
0A2D4078A0
02D6FF9680
0069006D00
0007FF9000
0007400000
000C780000
0018D00000
0019800000
0019980000
0019980000
0019980000
0019980000
ENDCHAR
STARTCHAR Ycircumflex
ENCODING 374
SWIDTH 789 0
DWIDTH 22 0
BBX 22 32 0 0
BITMAP
000029800000
00003CC00000
000069A00000
0000D6300000
000187640000
000269980000
000320880000
000000000000
000000000000
555500055550
33330009CCC0
266640199980
0CCCC0266700
099990666600
033330999900
026665999800
00CCCA666400
009996666000
006669999000
00265CC98000
0019A6664000
000973330000
000699990000
0002CCCC0000
000199980000
000199980000
000199980000
000199980000
000199980000
000199980000
000199980000
000199980000
ENDCHAR
STARTCHAR ycircumflex
ENCODING 375
SWIDTH 733 0
DWIDTH 21 0
BBX 20 29 0 0
BITMAP
0000620000
0000B64000
0001D98000
00024CC000
0003296000
0006673000
0009926400
0000000000
0000000000
5555002222
3333006666
19998099CC
0CCC919998
0666626660
0332666660
0199899990
00C9999980
0066266640
0032766600
0019999900
000DCC9800
0007666400
0003333000
0003333000
0003333000
0003333000
0003333000
0003333000
0003333000
ENDCHAR
STARTCHAR Ydieresis
ENCODING 376
SWIDTH 789 0
DWIDTH 22 0
BBX 22 28 0 0
BITMAP
005590666000
009990666000
009990666000
004440111000
000000000000
555500055550
33330009CCC0
266640199980
0CCCC0266700
099990666600
033330999900
026665999800
00CCCA666400
009996666000
006669999000
00265CC98000
0019A6664000
000973330000
000699990000
0002CCCC0000
000199980000
000199980000
000199980000
000199980000
000199980000
000199980000
000199980000
000199980000
ENDCHAR
STARTCHAR Zacute
ENCODING 377
SWIDTH 854 0
DWIDTH 24 0
BBX 22 32 1 0
BITMAP
000000001000
00000001E000
0000001E5A00
000001E1B400
00001E1B4000
000011A40000
00000A400000
000000000000
000000000000
AAAAAAAAAA90
5555555555E0
AAAAAAAA4740
555555552860
AAAAAA91D280
5555554A1D60
AAAAA474A1D0
555542874A10
00001D2875A0
0000A1D28B40
00074A1D6800
002874A2D000
01D2875A0000
0A1D28740000
74A1D6800000
874A1D000000
2875A1BFFFE0
D28740000000
1D287FFFFFE0
A1D000000000
4A2FFFFFFFE0
740000000000
FFFFFFFFFFE0
ENDCHAR
STARTCHAR zacute
ENCODING 378
SWIDTH 714 0
DWIDTH 20 0
BBX 19 29 0 0
BITMAP
0000000040
0000000690
000000792C
00000792D0
0000796D00
000056D000
00001D0000
0000000000
0000000000
2AAAA98950
15555758D8
2AAAAA3298
15555C9734
2AAA65CDA0
15556368C0
0000DA3240
00029C9600
0007258C00
000D636400
0028CA7000
00729CD000
0097358000
018DA30000
0368C90000
0A7259FFFC
1C96340000
358DABFFFC
6329C00000
4A726FFFFC
ENDCHAR
STARTCHAR Zdotaccent
ENCODING 379
SWIDTH 854 0
DWIDTH 24 0
BBX 22 30 1 0
BITMAP
00006A900000
000055400000
00006A900000
000015400000
00006A900000
000015400000
000000000000
AAAAAAAAAA90
5555555555E0
AAAAAAAA4740
555555552860
AAAAAA91D280
5555554A1D60
AAAAA474A1D0
555542874A10
00001D2875A0
0000A1D28B40
00074A1D6800
002874A2D000
01D2875A0000
0A1D28740000
74A1D6800000
874A1D000000
2875A1BFFFE0
D28740000000
1D287FFFFFE0
A1D000000000
4A2FFFFFFFE0
740000000000
FFFFFFFFFFE0
ENDCHAR
STARTCHAR zdotaccent
ENCODING 380
SWIDTH 714 0
DWIDTH 20 0
BBX 19 27 0 0
BITMAP
0001AA4000
0000554000
0001AA4000
0000554000
0001AA4000
0000550000
0000000000
2AAAA98950
15555758D8
2AAAAA3298
15555C9734
2AAA65CDA0
15556368C0
0000DA3240
00029C9600
0007258C00
000D636400
0028CA7000
00729CD000
0097358000
018DA30000
0368C90000
0A7259FFFC
1C96340000
358DABFFFC
6329C00000
4A726FFFFC
ENDCHAR
STARTCHAR Zcaron
ENCODING 381
SWIDTH 854 0
DWIDTH 24 0
BBX 22 32 1 0
BITMAP
000220880000
000266980000
000197240000
0000C6700000
000099900000
00007CC00000
000029800000
000000000000
000000000000
AAAAAAAAAA90
5555555555E0
AAAAAAAA4740
555555552860
AAAAAA91D280
5555554A1D60
AAAAA474A1D0
555542874A10
00001D2875A0
0000A1D28B40
00074A1D6800
002874A2D000
01D2875A0000
0A1D28740000
74A1D6800000
874A1D000000
2875A1BFFFE0
D28740000000
1D287FFFFFE0
A1D000000000
4A2FFFFFFFE0
740000000000
FFFFFFFFFFE0
ENDCHAR
STARTCHAR zcaron
ENCODING 382
SWIDTH 714 0
DWIDTH 20 0
BBX 19 29 0 0
BITMAP
0008822000
0009A67000
0006299000
00024CC000
0001A98000
0000F24000
0000A20000
0000000000
0000000000
2AAAA98950
15555758D8
2AAAAA3298
15555C9734
2AAA65CDA0
15556368C0
0000DA3240
00029C9600
0007258C00
000D636400
0028CA7000
00729CD000
0097358000
018DA30000
0368C90000
0A7259FFFC
1C96340000
358DABFFFC
6329C00000
4A726FFFFC
ENDCHAR
STARTCHAR florin
ENCODING 402
SWIDTH 388 0
DWIDTH 11 0
BBX 9 26 1 -2
BITMAP
001680
00A940
024680
067940
0D9680
0CCD40
0CCC00
0CCC00
9CCD80
5CCC40
9CCE80
4CCC40
9CCE80
4CCC00
0CCC00
0CCC00
0CCC00
0CCC00
0CCC00
0CCC00
1CC800
F59800
076400
F96000
06C000
F90000
ENDCHAR
STARTCHAR uni01C4
ENCODING 452
SWIDTH 1740 0
DWIDTH 49 0
BBX 47 32 1 0
BITMAP
000000000000000188620000
0000000000000000CD9A0000
000000000000000095CC0000
000000000000000031980000
000000000000000027640000
00000000000000001E300000
00000000000000000D600000
000000000000000000000000
000000000000000000000000
6AAAAAA500002AAAAAAAAAA4
9555555BD0001555555555B4
9AAAAAA478002AAAAAAA92D0
9955555B8A00155555555A28
99AAAAA4A2802AAAAAA4B5E0
9995555B58D0155555468B58
999AAAA5C9602AAAA91D78B4
999D555D6334155551A2D784
999C000336640000075A2D74
999C00025998000028B5E2D0
999C0001999C0001D68B5E00
999C000198CC000A1D78B400
999C000199D80075A2D78000
999C0001999802875A2D0000
999C000366981D28B5E00000
999C000A736421D68B400000
999FFFF8D6700A2D786FFFF8
999000075C9035A2D0000000
99BFFFF97580075E1FFFFFF8
99000006D70028B400000000
9BFFFFF92C00178BFFFFFFF8
90000005E0002D0000000000
BFFFFFFA40003FFFFFFFFFF8
ENDCHAR
STARTCHAR uni01C5
ENCODING 453
SWIDTH 1601 0
DWIDTH 45 0
BBX 43 29 1 0
BITMAP
0000000000000008822000
0000000000000009966000
00000000000000065D9000
000000000000000318C000
0000000000000002668000
0000000000000000F30000
6AAAAAA500000000A60000
9555555BD0000000000000
9AAAAAA478000000000000
9955555B8A002AAAA54850
99AAAAA4A28015555769C8
9995555B58D02AAA9A7258
999AAAA5C96015555C9630
999D555D63342AAA758D90
999C000336641555A32980
999C000259980001C97340
999C0001999C00025CDA00
999C000198CC0006368C00
999C000199D8000DA32400
999C000199980029C96000
999C00036698007258D000
999C000A736400D6368000
999FFFF8D670028CA70000
999000075C900729CD0000
99BFFFF97580097359FFF8
99000006D70018DA300000
9BFFFFF92C00368C9BFFF8
90000005E0006725C00000
BFFFFFFA400049636FFFFC
ENDCHAR
STARTCHAR Scommaaccent
ENCODING 536
SWIDTH 682 0
DWIDTH 19 0
BBX 18 35 1 -11
BITMAP
0016A50000
01B956F400
0B46A91B40
28B956E590
7286A91A00
9A3956E000
CC96A91000
CCCD564000
D998000000
CCCAAA4000
C9A156E000
A62FA91D00
369156D700
1D6FA97240
0790175980
00BFE4CCC0
00001C89C0
00100C9990
006FF8CCC0
03900759C0
246FF97640
4B9006D600
A46FF92C00
1A9005E000
016FFA4000
0000000000
000C980000
000C980000
000C980000
0008980000
0001980000
0006980000
000A240000
0005A00000
000A400000
ENDCHAR
STARTCHAR scommaaccent
ENCODING 537
SWIDTH 683 0
DWIDTH 19 0
BBX 18 31 1 -11
BITMAP
00AFBF9000
0B90406E00
286EAF92C0
6291506D40
D96EAF9500
CCD0006000
D8C0000000
CCA5540000
9A1AABE000
72E5542D00
1D1AAB9740
06E5547580
005AAB8CC0
000000D990
010000D990
01E95B9CC0
1D15947580
D2EA6B9700
2915946C00
06EAABD000
0015540000
0000000000
000CCC0000
000CCC0000
000CCC0000
000CCC0000
0000C80000
0006980000
000A240000
0005A00000
000A400000
ENDCHAR
STARTCHAR uni021A
ENCODING 538
SWIDTH 591 0
DWIDTH 17 0
BBX 15 33 1 -10
BITMAP
AAAAAAA4
55555554
AAAAAAA4
55555554
AAAAAAA4
5599A950
01999800
01999800
01999800
01999800
01999800
01999800
01999800
01999800
01999800
01999800
01999800
01999800
01999800
01999800
01999800
01999800
01999800
00000000
00666000
00666000
00666000
00666000
00066000
00196000
00649000
00168000
00690000
ENDCHAR
STARTCHAR uni021B
ENCODING 539
SWIDTH 588 0
DWIDTH 16 0
BBX 15 30 1 -10
BITMAP
AAAAAAA4
55555554
AAAAAAA4
55555550
AAAAAAA4
55555550
01999800
01999800
01999800
01999800
01999800
01999800
01999800
01999800
01999800
01999800
01999800
01999800
01999800
01999800
00000000
00666000
00666000
00666000
00666000
00066000
00196000
00649000
00168000
00690000
ENDCHAR
STARTCHAR uni0237
ENCODING 567
SWIDTH 393 0
DWIDTH 11 0
BBX 10 23 0 -3
BITMAP
022220
033260
033260
033260
033260
033260
033260
033260
033260
033260
033260
033260
033260
033260
066660
096660
74D990
0758C0
797280
069600
792800
06E000
790000
ENDCHAR
STARTCHAR circumflex
ENCODING 710
SWIDTH 376 0
DWIDTH 11 0
BBX 9 7 1 21
BITMAP
062000
0B6400
1D9800
24CC00
329600
667300
992640
ENDCHAR
STARTCHAR caron
ENCODING 711
SWIDTH 362 0
DWIDTH 10 0
BBX 8 7 1 21
BITMAP
8822
9966
6599
35CC
1A98
0F24
0A60
ENDCHAR
STARTCHAR breve
ENCODING 728
SWIDTH 360 0
DWIDTH 10 0
BBX 8 4 1 22
BITMAP
5005
D966
659A
1AA4
ENDCHAR
STARTCHAR dotaccent
ENCODING 729
SWIDTH 255 0
DWIDTH 7 0
BBX 5 6 1 17
BITMAP
AA80
5540
AA80
5540
AA80
5540
ENDCHAR
STARTCHAR ring
ENCODING 730
SWIDTH 330 0
DWIDTH 9 0
BBX 8 8 1 21
BITMAP
1A90
6568
9998
A429
D869
9698
29A0
0140
ENDCHAR
STARTCHAR ogonek
ENCODING 731
SWIDTH 250 0
DWIDTH 7 0
BBX 5 9 1 -8
BITMAP
1BC0
7400
96C0
CD00
CC00
CCC0
CCC0
CCC0
C880
ENDCHAR
STARTCHAR tilde
ENCODING 732
SWIDTH 665 0
DWIDTH 19 0
BBX 17 6 1 15
BITMAP
06AAAA1540
2955551980
A1AAAAB240
9A55554700
CC2AAABD00
4415554000
ENDCHAR
STARTCHAR hungarumlaut
ENCODING 733
SWIDTH 837 0
DWIDTH 23 0
BBX 22 7 1 20
BITMAP
000050000100
0006D0002D00
006D2C06D1D0
0692E06D1E40
692E06D1E400
52E0051E0000
0D0000E00000
ENDCHAR
STARTCHAR uni0307
ENCODING 775
SWIDTH 260 0
DWIDTH 7 0
BBX 5 6 1 10
BITMAP
AA80
5540
AA80
5540
AA80
1540
ENDCHAR
STARTCHAR uni030F
ENCODING 783
SWIDTH 554 0
DWIDTH 16 0
BBX 14 10 1 20
BITMAP
CD033000
A6026400
33019800
2640CD00
1980A600
0CD07300
09602640
07301980
02640CD0
00040440
ENDCHAR
STARTCHAR uni0311
ENCODING 785
SWIDTH 375 0
DWIDTH 11 0
BBX 9 4 1 22
BITMAP
014000
1A6800
66A600
981A40
ENDCHAR
STARTCHAR uni0326
ENCODING 806
SWIDTH 274 0
DWIDTH 8 0
BBX 6 9 1 -11
BITMAP
9990
9990
9990
9990
0990
1C90
A5C0
1740
A900
ENDCHAR
STARTCHAR Omega
ENCODING 937
SWIDTH 92 0
DWIDTH 3 0
BBX 1 1 0 0
BITMAP
00
ENDCHAR
STARTCHAR uni00B5.dup2
ENCODING 956
SWIDTH 802 0
DWIDTH 22 0
BBX 21 23 1 -3
BITMAP
558800155540
999900266640
999900266640
999900266640
999900266640
999900266640
999900266640
999900266640
999900266640
999900266640
999900266640
999900266640
999900366640
999900A73300
9999FF4DA600
99990075C900
9999FF976800
999900687000
9999FF928000
9999006E0000
9999FF900000
999900000000
999900000000
ENDCHAR
STARTCHAR pi
ENCODING 960
SWIDTH 92 0
DWIDTH 3 0
BBX 1 1 0 0
BITMAP
00
ENDCHAR
STARTCHAR endash
ENCODING 8211
SWIDTH 473 0
DWIDTH 13 0
BBX 11 5 1 9
BITMAP
AAAAA8
155554
AAAAA8
155554
BFFFFC
ENDCHAR
STARTCHAR emdash
ENCODING 8212
SWIDTH 615 0
DWIDTH 17 0
BBX 15 5 1 9
BITMAP
AAAAAAA8
15555554
AAAAAAA8
15555554
BFFFFFFC
ENDCHAR
STARTCHAR quoteleft
ENCODING 8216
SWIDTH 254 0
DWIDTH 7 0
BBX 5 10 1 13
BITMAP
0680
2940
6180
9A40
CC00
CC80
CCC0
CCC0
CCC0
4440
ENDCHAR
STARTCHAR quoteright
ENCODING 8217
SWIDTH 251 0
DWIDTH 7 0
BBX 5 9 1 14
BITMAP
8880
CCC0
CCC0
CCC0
4CC0
0CC0
B580
4640
BD00
ENDCHAR
STARTCHAR quotesinglbase
ENCODING 8218
SWIDTH 252 0
DWIDTH 7 0
BBX 5 9 1 -4
BITMAP
CCC0
CCC0
CCC0
CCC0
0CC0
18C0
E180
1740
A800
ENDCHAR
STARTCHAR quotedblleft
ENCODING 8220
SWIDTH 535 0
DWIDTH 15 0
BBX 13 10 1 13
BITMAP
06800680
29402940
6180A180
9A40CA40
CC00CC00
CC80CC80
CCC0CCC0
CCC0CCC0
CCC0CCC0
44404440
ENDCHAR
STARTCHAR quotedblright
ENCODING 8221
SWIDTH 532 0
DWIDTH 15 0
BBX 13 10 1 13
BITMAP
88808880
CCC0CCC0
CCC0CCC0
CCC0CCC0
4CC04CC0
0CC018C0
B580B580
46404740
BD00BD00
00004000
ENDCHAR
STARTCHAR quotedblbase
ENCODING 8222
SWIDTH 533 0
DWIDTH 15 0
BBX 13 9 1 -4
BITMAP
CCC0CC80
CCC0CCC0
CCC0CCC0
CCC0CCC0
0CC00CC0
18C02980
E180E280
17401B00
A800E800
ENDCHAR
STARTCHAR dagger
ENCODING 8224
SWIDTH 636 0
DWIDTH 18 0
BBX 16 23 1 0
BITMAP
00555500
00666600
00666600
00666600
00666600
FFE667FF
00666600
FFE667FF
00666600
FFE667FF
00666600
00666600
00666600
00666600
00666600
00666600
00666600
00666600
00666600
00666600
00666600
00666600
00666600
ENDCHAR
STARTCHAR daggerdbl
ENCODING 8225
SWIDTH 648 0
DWIDTH 18 0
BBX 16 23 1 0
BITMAP
00225500
00666600
00666600
00666600
55666655
AAA667AA
55666655
AAA667AA
55A66655
AAA667AA
00666600
00666600
00666600
00666600
BFE667FF
15666655
AAE667AA
55666655
AAA667AA
00666600
00666600
00666600
00666600
ENDCHAR
STARTCHAR bullet
ENCODING 8226
SWIDTH 501 0
DWIDTH 14 0
BBX 12 13 1 3
BITMAP
01BE40
0A41B0
24BE5C
6741DA
990063
CC0033
CC0033
CD0033
970096
35EB4D
1D1474
06EB90
001400
ENDCHAR
STARTCHAR ellipsis
ENCODING 8230
SWIDTH 676 0
DWIDTH 19 0
BBX 17 5 1 0
BITMAP
BFCFFCFF80
0000000000
FFCFFCFF80
0000000000
FFCFFCFF80
ENDCHAR
STARTCHAR perthousand
ENCODING 8240
SWIDTH 447 0
DWIDTH 13 0
BBX 12 26 0 -3
BITMAP
000122
000666
000999
000CCD
001CCC
001998
002664
003334
007330
006660
009990
00CCD0
01CCC0
019980
026640
033340
073300
066600
099900
0CCD00
1CCC00
199800
266400
333000
733000
555000
ENDCHAR
STARTCHAR guilsinglleft
ENCODING 8249
SWIDTH 465 0
DWIDTH 13 0
BBX 11 14 1 3
BITMAP
000068
000790
01B928
1E46E0
E4B918
1B86E4
E46D00
1B9680
B4A4B8
B91E44
06E1B8
002E44
0001B4
000004
ENDCHAR
STARTCHAR guilsinglright
ENCODING 8250
SWIDTH 465 0
DWIDTH 13 0
BBX 11 14 1 3
BITMAP
A40000
1B4000
A1B900
2E46D0
91B86C
6E4B90
01B46C
0A5B90
B8687C
46D1B8
B91E40
46E000
790000
400000
ENDCHAR
STARTCHAR fraction
ENCODING 8260
SWIDTH 447 0
DWIDTH 13 0
BBX 12 26 0 -3
BITMAP
000122
000666
000999
000CCD
001CCC
001998
002664
003334
007330
006660
009990
00CCD0
01CCC0
019980
026640
033340
073300
066600
099900
0CCD00
1CCC00
199800
266400
333000
733000
555000
ENDCHAR
STARTCHAR uni2074
ENCODING 8308
SWIDTH 528 0
DWIDTH 15 0
BBX 13 19 1 4
BITMAP
00552000
00C9A000
019CC000
03658000
06734000
0D960000
18CD0000
26985500
73246900
9A706900
95555540
AAAAAA80
55555540
AAAAAA80
55555540
AAAAAA80
00005500
00006900
00005500
ENDCHAR
STARTCHAR Euro
ENCODING 8364
SWIDTH 781 0
DWIDTH 22 0
BBX 21 25 0 -1
BITMAP
0000005A9400
00001BA56B80
0000B46A9440
00074B956B40
001D786A9400
0035D7956A00
00A72D2A9400
00CDA2D55900
0299CA000000
036668000000
173335550000
66666AAA4000
066660000000
166665554000
672336AA4000
033364000000
02658D000000
018C97800400
009A38BFE800
00728A401600
0018A1BFE900
000B1E401640
0001D1BFE900
00002E4016C0
000001BFE900
ENDCHAR
STARTCHAR trademark
ENCODING 8482
SWIDTH 1503 0
DWIDTH 42 0
BBX 40 17 1 6
BITMAP
AAAAAAA4621400000856
555555547698000018CF
AAAAAAA47CC90000365F
55555554696700006337
AAAAAAA463364000D963
556665546259C0019CD3
0066600065CD900326A3
0066600066A6300A7373
006660006632640C9A33
0066600066298C298D33
00666000665C9A326A33
00666000666673563333
006660006663668D9333
0066600066619CD9C333
006660006660D9624333
00666000666063370333
006660006660365D0333
ENDCHAR
STARTCHAR partialdiff
ENCODING 8706
SWIDTH 108 0
DWIDTH 3 0
BBX 1 1 0 0
BITMAP
00
ENDCHAR
STARTCHAR uni2206
ENCODING 8710
SWIDTH 108 0
DWIDTH 3 0
BBX 1 1 0 0
BITMAP
00
ENDCHAR
STARTCHAR product
ENCODING 8719
SWIDTH 521 0
DWIDTH 15 0
BBX 13 20 1 0
BITMAP
01888000
02D99000
07666000
09332400
0C669800
1998CC00
264D9900
73266600
96633340
CD926980
CCD25980
99633640
67367300
32659A00
2998CC00
0CCD9800
09962400
06733000
0326A000
0299D000
ENDCHAR
STARTCHAR summation
ENCODING 8721
SWIDTH 108 0
DWIDTH 3 0
BBX 1 1 0 0
BITMAP
00
ENDCHAR
STARTCHAR minus
ENCODING 8722
SWIDTH 555 0
DWIDTH 16 0
BBX 14 5 1 10
BITMAP
AAAAAA90
55555540
AAAAAA90
15555540
AAAAAA90
ENDCHAR
STARTCHAR radical
ENCODING 8730
SWIDTH 108 0
DWIDTH 3 0
BBX 1 1 0 0
BITMAP
00
ENDCHAR
STARTCHAR infinity
ENCODING 8734
SWIDTH 108 0
DWIDTH 3 0
BBX 1 1 0 0
BITMAP
00
ENDCHAR
STARTCHAR integral
ENCODING 8747
SWIDTH 362 0
DWIDTH 10 0
BBX 10 26 0 -2
BITMAP
000690
007950
01D690
025D40
073190
066640
066600
066600
066600
066600
066600
066600
066600
066600
066600
066600
066600
066600
066600
066600
0A6500
7C9900
028C00
7E2800
01A000
7E4000
ENDCHAR
STARTCHAR approxequal
ENCODING 8776
SWIDTH 665 0
DWIDTH 19 0
BBX 17 13 1 8
BITMAP
06AAAA1540
2955551980
A1AAAAB240
9A55554700
CC2AAABD00
4415554000
0000000000
06AAAA1540
2955551980
A1AAAAB240
9A55554700
CC2AAABD00
4415554000
ENDCHAR
STARTCHAR notequal
ENCODING 8800
SWIDTH 473 0
DWIDTH 13 0
BBX 12 26 0 -3
BITMAP
000122
000666
000999
000CCD
001CCC
001998
2ABFFE
157775
2AFFFA
05ABB5
2AFFFA
05DDD5
01CCC0
019980
2FFFFF
037740
2FFFFF
0A6600
2FFFFF
0CDD00
1CCC00
199800
266400
333000
733000
555000
ENDCHAR
STARTCHAR lessequal
ENCODING 8804
SWIDTH 108 0
DWIDTH 3 0
BBX 1 1 0 0
BITMAP
00
ENDCHAR
STARTCHAR greaterequal
ENCODING 8805
SWIDTH 108 0
DWIDTH 3 0
BBX 1 1 0 0
BITMAP
00
ENDCHAR
STARTCHAR lozenge
ENCODING 9674
SWIDTH 521 0
DWIDTH 15 0
BBX 13 20 1 0
BITMAP
01888000
02D99000
07666000
09332400
0C669800
1998CC00
264D9900
73266600
96633340
CD926980
CCD25980
99633640
67367300
32659A00
2998CC00
0CCD9800
09962400
06733000
0326A000
0299D000
ENDCHAR
STARTCHAR uniF8FF
ENCODING 63743
SWIDTH 108 0
DWIDTH 3 0
BBX 1 1 0 0
BITMAP
00
ENDCHAR
STARTCHAR uniFB01
ENCODING 64257
SWIDTH 962 0
DWIDTH 27 0
BBX 25 20 1 0
BITMAP
588AAAA9099540
99995555199980
999AAAA9199980
99995554199980
999AAAA9199980
99995554199980
99990000199980
99990000199980
999AAAA8199980
99995554199980
999AAAA8199980
99995554199980
999BAAA8199980
99990000199980
99990000199980
99990000199980
99990000199980
99990000199980
99990000199980
99990000199980
ENDCHAR
STARTCHAR uniFB02
ENCODING 64258
SWIDTH 1208 0
DWIDTH 34 0
BBX 32 20 1 0
BITMAP
588AAAA909954000
9999555519998000
999AAAA919998000
9999555419998000
999AAAA919998000
9999555419998000
9999000019998000
9999000019998000
999AAAA819998000
9999555419998000
999AAAA819998000
9999555419998000
999BAAA819998000
9999000019998000
9999000019998000
999900001999FFFF
9999000019998000
999900001999FFFF
9999000019998000
999900001999FFFF
ENDCHAR
STARTCHAR .notdef
ENCODING -1
SWIDTH 108 0
DWIDTH 3 0
BBX 1 1 0 0
BITMAP
00
ENDCHAR
ENDFONT
